<?xml version="1.0" encoding="UTF-8"?>
<svg version="1.1" xmlns="http://www.w3.org/2000/svg" width="822" height="303">
<path d="M0 0 C2.90376313 2.11182773 5.45573464 4.47200926 8 7 C8.53238281 7.51820312 9.06476563 8.03640625 9.61328125 8.5703125 C10.75740013 9.69831703 11.88152039 10.8465679 13 12 C13.59167969 11.31292969 14.18335938 10.62585937 14.79296875 9.91796875 C15.97826172 8.56638672 15.97826172 8.56638672 17.1875 7.1875 C17.96480469 6.29417969 18.74210937 5.40085937 19.54296875 4.48046875 C23.53245561 0.45292637 27.27403388 -1.77096136 33 -2 C40.31889791 0.09111369 43.77545372 4.32604767 47.63671875 10.703125 C54.04157303 22.55133 55.60614374 34.93158167 52 48 C52.70125 47.66226563 53.4025 47.32453125 54.125 46.9765625 C66.51552393 41.15166946 78.40709911 38.4125628 91.8515625 43.08984375 C97.53468029 45.49741911 101.62017482 48.8308556 105 54 C106.36133692 62.16802152 102.43345026 68.3498246 98 75 C98.556875 75.10828125 99.11375 75.2165625 99.6875 75.328125 C105.25484123 76.94566333 110.31364877 80.51440487 114.625 84.3125 C116.65503725 88.28030007 116.72262018 91.63508217 116 96 C114.14549514 101.45442606 110.93858913 105.85411671 107 110 C106.34 110 105.68 110 105 110 C105 110.66 105 111.32 105 112 C96.50119951 118.71462793 85.76447128 122.3520456 75 122 C75.65226563 122.79921875 76.30453125 123.5984375 76.9765625 124.421875 C86.02674484 135.71208142 93.6447248 147.40986115 93.3203125 162.40234375 C92.67422849 167.64192752 91.08713089 173.09829603 87.109375 176.72265625 C80.94927068 180.45294164 72.76475609 179.52752557 66 178 C64.33397218 179.66602782 64.51693247 181.90610316 64.1875 184.1875 C63.32791926 188.98994023 62.39381155 192.33101454 59 196 C53.23694756 199.26210515 48.70459182 199.8450934 42.27734375 198.37890625 C30.14844932 194.85761432 21.16246876 188.07030317 15 177 C13.5625 173.375 13.5625 173.375 13 171 C12.34 171 11.68 171 11 171 C10.7421875 171.87785156 10.484375 172.75570312 10.21875 173.66015625 C6.73996401 183.19336787 -0.25134363 190.13963535 -9 195 C-16.45639725 198.45915337 -24.26933439 200.6375381 -32.25 197.875 C-36.62101863 194.89476002 -39.02214127 191.16731233 -40 186 C-40.06548492 184.41788427 -40.08578381 182.83329919 -40.0625 181.25 C-40.05347656 180.45078125 -40.04445312 179.6515625 -40.03515625 178.828125 C-40.02355469 178.22484375 -40.01195312 177.6215625 -40 177 C-41.134375 177.33 -42.26875 177.66 -43.4375 178 C-48.94084755 179.36607918 -54.20402985 179.63544776 -59.75 178.375 C-64.03068508 175.75902579 -66.32414026 173.12640777 -67.828125 168.39453125 C-70.27269373 156.5321048 -68.09126854 146.56960754 -62.0859375 136.16796875 C-58.76349246 131.12208311 -55.00171834 126.52802143 -51 122 C-52.02351563 122.03351563 -53.04703125 122.06703125 -54.1015625 122.1015625 C-66.48357204 121.7789851 -77.12671542 115.66756658 -85.49609375 106.8515625 C-89.52264126 101.89420271 -91.88077435 96.43818492 -92 90 C-90.18274947 83.76942676 -85.25773031 80.3889112 -80 77 C-76.4375 75.5625 -76.4375 75.5625 -74 75 C-74.42152344 74.31292969 -74.84304687 73.62585938 -75.27734375 72.91796875 C-75.82519531 72.01691406 -76.37304688 71.11585937 -76.9375 70.1875 C-77.48277344 69.29417969 -78.02804688 68.40085937 -78.58984375 67.48046875 C-81.02137168 63.20340438 -81.41349701 59.87926477 -81 55 C-77.94250473 48.63021819 -73.00566119 45.71182102 -66.71484375 43.0234375 C-55.18538325 39.01156019 -44.16689816 40.61248022 -33 45 C-30.98759484 45.9747951 -28.98378026 46.96819775 -27 48 C-27.16757813 47.05640625 -27.33515625 46.1128125 -27.5078125 45.140625 C-29.76131627 30.93499366 -28.34840936 18.13143494 -19.75 6.125 C-14.30755049 -0.40826029 -8.1521796 -4.17898139 0 0 Z M7 76 C5.91776634 78.91004903 5.91776634 78.91004903 6 82 C6.93597315 84.01951062 6.93597315 84.01951062 9 85 C12.18153026 85.39769128 14.12844028 85.55198782 16.875 83.8125 C18.42229478 81.31963619 18.50405716 79.88032665 18 77 C16.26961928 75.09798258 16.26961928 75.09798258 14 74 C10.80869 74 9.54714915 74.13209062 7 76 Z M-13 90 C-15.29544841 92.82398066 -15.29544841 92.82398066 -14.9375 96.0625 C-14.2819662 99.12812183 -14.2819662 99.12812183 -11.8125 100.5625 C-8.04413665 101.14868985 -6.19938518 99.93451197 -3 98 C-2.66574265 95.62625139 -2.66574265 95.62625139 -3 93 C-5.29569806 90.4394137 -6.70093435 90.03588788 -10.125 89.625 C-11.07375 89.74875 -12.0225 89.8725 -13 90 Z M28.5625 91.125 C26.78257772 92.92909233 26.78257772 92.92909233 26.625 95.5625 C26.78103864 98.17528109 26.78103864 98.17528109 29 100 C31.87319901 101.00674926 31.87319901 101.00674926 35 101 C37.58333333 99.58333333 37.58333333 99.58333333 39 97 C38.85650653 93.80045046 38.85650653 93.80045046 38 91 C33.18581859 89.89595555 33.18581859 89.89595555 28.5625 91.125 Z M-5.75 117.5 C-6.4925 118.325 -7.235 119.15 -8 120 C-6.75023244 123.65316671 -6.32901247 124.78065836 -3 127 C-0.41666667 126.91666667 -0.41666667 126.91666667 2 126 C4.30019361 122.54970958 4.43132515 121.05445642 4 117 C-0.20794988 114.19470008 -1.96703396 114.06093996 -5.75 117.5 Z M20 117 C19.33278464 119.91440699 19.33278464 119.91440699 20 123 C22.37842577 125.40406384 22.37842577 125.40406384 25 127 C28.23285484 126.0641736 29.67193589 125.51943484 31.5 122.625 C32.2576652 120.00385904 32.2576652 120.00385904 31 117.75 C27.22974612 114.45102785 24.09449236 114.27033842 20 117 Z " fill="#FD89A7" transform="translate(175,48)"/>
<path d="M0 0 C3.54624552 -0.17510661 7.09137362 -0.28111333 10.640625 -0.375 C11.64174316 -0.42527344 12.64286133 -0.47554688 13.67431641 -0.52734375 C20.98531467 -0.67247523 20.98531467 -0.67247523 23.94702816 1.29037857 C26.40972398 3.8307154 28.40820794 6.6599279 29.91015625 9.859375 C31.69809191 13.45749922 33.71097753 16.81577288 35.87548828 20.19897461 C37.17489389 22.23029327 38.4434524 24.27827981 39.70703125 26.33203125 C42.61852975 31.02496197 45.77818109 35.51609061 49 40 C50.50897601 42.11714229 52.01474391 44.23650511 53.51806641 46.35766602 C54.55963605 47.82728882 55.60344479 49.29532827 56.64990234 50.76147461 C59.60227967 54.92270317 62.35176882 59.13251814 64.91748047 63.54443359 C65.27471191 64.02477051 65.63194336 64.50510742 66 65 C66.66 65 67.32 65 68 65 C68.33 43.55 68.66 22.1 69 0 C76.59 0 84.18 0 92 0 C92.33 18.15 92.66 36.3 93 55 C93.33 55 93.66 55 94 55 C94 73.15 94 91.3 94 110 C88.00300682 112.99849659 80.22327117 113.07336072 73.73388672 112.02636719 C65.35780153 108.88178225 60.90447516 98.3545621 56.72998047 91.00878906 C54.34833964 86.86662965 51.69142555 82.94444077 49 79 C48.05491091 77.57363079 47.11092662 76.14652903 46.16796875 74.71875 C41.61113335 67.88275256 36.88113829 61.16480877 32.16601562 54.4375 C31.50923828 53.4990625 30.85246094 52.560625 30.17578125 51.59375 C29.58708252 50.75521484 28.99838379 49.91667969 28.3918457 49.05273438 C27 47 27 47 26 45 C25.67 61.83 25.34 78.66 25 96 C24.67 96 24.34 96 24 96 C24 78.18 24 60.36 24 42 C23.67 64.77 23.34 87.54 23 111 C15.74 111 8.48 111 1 111 C0 110 0 110 -0.12304783 108.1590414 C-0.12212604 107.34878537 -0.12120424 106.53852934 -0.12025452 105.70372009 C-0.12162918 104.77678848 -0.12300385 103.84985687 -0.12442017 102.89483643 C-0.12082489 101.86985046 -0.11722961 100.8448645 -0.11352539 99.78881836 C-0.11367142 98.71577957 -0.11381744 97.64274078 -0.1139679 96.53718567 C-0.11326824 92.97138484 -0.10547338 89.40563551 -0.09765625 85.83984375 C-0.09579226 83.37504607 -0.09436827 80.91024801 -0.09336853 78.44544983 C-0.08954187 71.94346095 -0.07971032 65.44149425 -0.06866455 58.93951416 C-0.05791748 52.31059183 -0.05387159 45.68166307 -0.04882812 39.05273438 C-0.03808819 26.03514676 -0.02120097 13.01757456 0 0 Z " fill="#0E002B" transform="translate(664,74)"/>
<path d="M0 0 C6.95177358 -0.10271234 13.90334659 -0.17200629 20.85571289 -0.21972656 C23.21320914 -0.23965223 25.57065721 -0.26680278 27.92797852 -0.30175781 C48.65697106 -0.60109344 67.00122432 -0.16323042 83.125 14.375 C95.97945878 27.77688841 98.56077371 43.83119837 98.23828125 61.67578125 C97.78528422 74.48689424 93.36089948 86.31715315 84.453125 95.67578125 C78.30469396 100.96236574 69.42592796 108 61 108 C60.67 108.66 60.34 109.32 60 110 C54.13532638 111.57012883 47.88017117 111.14365087 41.85546875 111.1328125 C40.68993973 111.13376923 39.52441071 111.13472595 38.32356262 111.13571167 C35.86845851 111.13639057 33.41335259 111.13455656 30.95825195 111.13037109 C27.18371609 111.12499461 23.40929792 111.13033829 19.63476562 111.13671875 C17.24999974 111.13605839 14.86523392 111.13477811 12.48046875 111.1328125 C11.34514206 111.13483673 10.20981537 111.13686096 9.04008484 111.13894653 C7.99842667 111.13579437 6.95676849 111.13264221 5.88354492 111.12939453 C4.96232346 111.12859894 4.04110199 111.12780334 3.09196472 111.12698364 C1 111 1 111 0 110 C-0.09554399 108.57053529 -0.12188438 107.13637335 -0.12025452 105.70372009 C-0.12162918 104.77678848 -0.12300385 103.84985687 -0.12442017 102.89483643 C-0.12082489 101.86985046 -0.11722961 100.8448645 -0.11352539 99.78881836 C-0.11367142 98.71577957 -0.11381744 97.64274078 -0.1139679 96.53718567 C-0.11326824 92.97138484 -0.10547338 89.40563551 -0.09765625 85.83984375 C-0.09579226 83.37504607 -0.09436827 80.91024801 -0.09336853 78.44544983 C-0.08954187 71.94346095 -0.07971032 65.44149425 -0.06866455 58.93951416 C-0.05791748 52.31059183 -0.05387159 45.68166307 -0.04882812 39.05273438 C-0.03808819 26.03514676 -0.02120097 13.01757456 0 0 Z M26 21 C24.66827655 23.6634469 24.87286662 25.68893015 24.87060547 28.67138672 C24.86745331 29.85957001 24.86430115 31.0477533 24.86105347 32.27194214 C24.8630777 33.56149811 24.86510193 34.85105408 24.8671875 36.1796875 C24.86623077 37.49913361 24.86527405 38.81857971 24.86428833 40.17800903 C24.86281268 42.97399055 24.86496097 45.76994016 24.86962891 48.56591797 C24.87531508 52.14597566 24.87205343 55.7259582 24.86605644 59.30601311 C24.86243782 62.05983035 24.86359559 64.81362988 24.86618423 67.56744766 C24.86717421 69.52835387 24.86414121 71.48926077 24.86105347 73.45016479 C24.86420563 74.6446524 24.86735779 75.83914001 24.87060547 77.06982422 C24.87140106 78.12080292 24.87219666 79.17178162 24.87301636 80.25460815 C24.90504093 82.94180495 24.90504093 82.94180495 25.57058716 85.24563599 C26 87 26 87 25 89 C28.64581687 89.02887512 32.29160463 89.04675585 35.9375 89.0625 C36.97841797 89.07087891 38.01933594 89.07925781 39.09179688 89.08789062 C40.08115234 89.09111328 41.07050781 89.09433594 42.08984375 89.09765625 C43.46450806 89.10551147 43.46450806 89.10551147 44.86694336 89.11352539 C46.98363023 89.23921211 46.98363023 89.23921211 48 88 C49.175625 87.9175 50.35125 87.835 51.5625 87.75 C57.49021529 87.02891835 61.77087224 84.50588177 65.73046875 80.0546875 C73.1551092 69.82518288 74.25955913 58.12329318 72.56640625 45.859375 C70.87981836 37.68832809 67.63286098 30.30363409 60.671875 25.33984375 C51.04860134 20.14993358 36.56141589 17.14385513 26 21 Z " fill="#0F002C" transform="translate(334,74)"/>
<path d="M0 0 C3.96 0 7.92 0 12 0 C12 0.33 12 0.66 12 1 C13.093125 0.95875 14.18625 0.9175 15.3125 0.875 C19 1 19 1 22 3 C24.18292578 3.86578981 26.37117235 4.71820142 28.5625 5.5625 C35.6430761 8.45868285 40.69782522 12.45189875 46 18 C46.56074219 18.54140625 47.12148438 19.0828125 47.69921875 19.640625 C55.70902825 27.96578133 61.01035697 40.55234024 61.125 52.0625 C61.08375 53.031875 61.0425 54.00125 61 55 C61.66 55 62.32 55 63 55 C63 57.64 63 60.28 63 63 C62.34 63 61.68 63 61 63 C61.03222656 63.71800781 61.06445312 64.43601562 61.09765625 65.17578125 C61.00977778 73.01649353 59.15296064 78.84421699 55.8125 85.875 C55.43810791 86.67075439 55.06371582 87.46650879 54.67797852 88.28637695 C48.84579871 100.02079647 39.10696247 109.246329 26.5625 113.5 C24.72001532 114.04146489 22.86573752 114.54507416 21 115 C20.2471875 115.19078125 19.494375 115.3815625 18.71875 115.578125 C4.21579761 117.82858313 -11.7683524 116.63537093 -24 108 C-34.67202128 99.68306984 -40.84129729 90.80060809 -44.95703125 78.00390625 C-45.90312715 74.87327989 -45.90312715 74.87327989 -48 72 C-48.32384724 68.06728505 -48.04994865 64.1265558 -47.875 60.1875 C-47.82496826 59.05489746 -47.77493652 57.92229492 -47.72338867 56.75537109 C-46.77765686 39.63406812 -41.77741063 25.53655013 -29.12109375 13.515625 C-20.83172355 6.48992677 -10.53760383 3.02646227 0 1 C0 0.67 0 0.34 0 0 Z M-15 32 C-22.09317717 41.30979504 -24.09380835 53.57413715 -23 65 C-21.16201845 75.82810871 -17.56152579 83.88467789 -9 91 C-6.44278263 92.42557356 -6.44278263 92.42557356 -4 93 C-3.42636719 93.1753125 -2.85273437 93.350625 -2.26171875 93.53125 C0.68983304 94.14297058 3.48732846 94.1319098 6.5 94.125 C7.6240625 94.12757813 8.748125 94.13015625 9.90625 94.1328125 C16.9546325 93.83023042 23.40975006 91.08379689 28.25 85.875 C36.40530449 75.58642785 37.00636449 62.55350583 36 50 C34.37739544 41.5253682 30.90480276 33.97879228 24.1171875 28.47265625 C11.77573306 20.1240253 -4.44507427 21.25659346 -15 32 Z M61 58 C62 60 62 60 62 60 Z " fill="#0E002C" transform="translate(589,70)"/>
<path d="M0 0 C9.57 0 19.14 0 29 0 C36.20703125 20.41992187 36.20703125 20.41992187 36.99681091 22.65779114 C37.52716403 24.16035104 38.05765219 25.66286327 38.58827209 27.16532898 C39.94148576 30.99754344 41.2922665 34.83058519 42.63842773 38.6652832 C42.90444794 39.42196793 43.17046814 40.17865265 43.44454956 40.95826721 C43.94511517 42.38230834 44.44487581 43.80663282 44.94363403 45.23130798 C46.85210242 50.65627575 48.90369195 56.01548029 51.01953125 61.36328125 C51.8431744 63.57825785 52.43876583 65.71189144 53 68 C53.495 69.155 53.99 70.31 54.5 71.5 C56 75 56 75 56.45092773 76.80444336 C57.20455549 79.81794908 58.25353358 82.69917822 59.28515625 85.62890625 C59.73779776 86.92376957 60.19026656 88.21869327 60.64257812 89.51367188 C61.3539054 91.54424162 62.0666556 93.57427914 62.7824707 95.60327148 C63.47500152 97.56872858 64.16173228 99.53613541 64.84765625 101.50390625 C65.26023682 102.67767822 65.67281738 103.8514502 66.09790039 105.06079102 C67 108 67 108 67 111 C59.08 111 51.16 111 43 111 C38 101 38 101 38 97 C37.34 96.67 36.68 96.34 36 96 C35.01 90.555 35.01 90.555 34 85 C21.13 85 8.26 85 -5 85 C-5.99 88.63 -6.98 92.26 -8 96 C-8.70243602 98.54330281 -9.4098161 101.08525246 -10.125 103.625 C-10.45757812 104.81351562 -10.79015625 106.00203125 -11.1328125 107.2265625 C-12 110 -12 110 -13 111 C-14.85369611 111.08737645 -16.71067541 111.10698153 -18.56640625 111.09765625 C-19.69111328 111.09443359 -20.81582031 111.09121094 -21.97460938 111.08789062 C-23.15861328 111.07951172 -24.34261719 111.07113281 -25.5625 111.0625 C-26.75037109 111.05798828 -27.93824219 111.05347656 -29.16210938 111.04882812 C-32.10812226 111.03699675 -35.05403681 111.02051287 -38 111 C-37.44498381 106.31217424 -36.52410105 102.17911005 -34.890625 97.75390625 C-34.46773193 96.59383057 -34.04483887 95.43375488 -33.60913086 94.23852539 C-32.93636108 92.41889282 -32.93636108 92.41889282 -32.25 90.5625 C-25.70896808 73.05327197 -25.70896808 73.05327197 -21 55 C-20 52.8125 -20 52.8125 -19 51 C-15.41456127 43.82912253 -12.92131264 36.10717149 -10.25 28.5625 C-9.93208496 27.67385254 -9.61416992 26.78520508 -9.28662109 25.86962891 C-8.99094238 25.02706543 -8.69526367 24.18450195 -8.390625 23.31640625 C-8.12282227 22.55787354 -7.85501953 21.79934082 -7.57910156 21.01782227 C-6.86207121 18.86928029 -6.86207121 18.86928029 -7 16 C-6.34 16 -5.68 16 -5 16 C-4.80664062 15.26394531 -4.61328125 14.52789062 -4.4140625 13.76953125 C-4.15367187 12.79371094 -3.89328125 11.81789063 -3.625 10.8125 C-3.36976563 9.84957031 -3.11453125 8.88664062 -2.8515625 7.89453125 C-2 5 -2 5 0 0 Z M14 25 C12.26322896 30.2296654 10.53615806 35.46239426 8.81811523 40.69824219 C8.23192586 42.48004986 7.64306545 44.26098106 7.05151367 46.04101562 C6.20312935 48.59541336 5.36430834 51.15277884 4.52734375 53.7109375 C4.25969711 54.50994476 3.99205048 55.30895203 3.71629333 56.13217163 C2.14088638 60.08672982 2.14088638 60.08672982 3 64 C4.00559794 65.22784809 4.00559794 65.22784809 6.04125977 65.11352539 C6.91580811 65.10828857 7.79035645 65.10305176 8.69140625 65.09765625 C9.63564453 65.09443359 10.57988281 65.09121094 11.55273438 65.08789062 C13.04256836 65.07532227 13.04256836 65.07532227 14.5625 65.0625 C15.55958984 65.05798828 16.55667969 65.05347656 17.58398438 65.04882812 C20.05604849 65.03700007 22.52799518 65.02051849 25 65 C25.96237241 60.09190073 25.96088776 57.52706431 24 53 C23.26195908 50.80110341 22.54211758 48.59605356 21.8359375 46.38671875 C21.43632812 45.13955078 21.03671875 43.89238281 20.625 42.60742188 C20.20829422 41.30079372 19.79162804 39.99415294 19.375 38.6875 C18.95068584 37.36127532 18.52620832 36.0351029 18.1015625 34.70898438 C17.06610077 31.47316647 16.03230715 28.2368254 15 25 C14.67 25 14.34 25 14 25 Z M26 61 C26 62.32 26 63.64 26 65 C26.66 64.67 27.32 64.34 28 64 C27.34 63.01 26.68 62.02 26 61 Z " fill="#0E002B" transform="translate(473,74)"/>
<path d="M0 0 C1.46663086 -0.0309375 1.46663086 -0.0309375 2.96289062 -0.0625 C10.70229995 -0.10397038 16.20445016 1.01173473 22.6875 5.5 C28.26798306 11.08048306 30.36351832 16.69744123 30.6875 24.5 C30.51742809 33.04611324 27.85775343 38.49173257 21.86328125 44.5234375 C14.90026783 49.47939875 8.25958951 49.67422997 0 49.5 C-1.00482422 49.49484375 -2.00964844 49.4896875 -3.04492188 49.484375 C-10.40777726 49.40472274 -10.40777726 49.40472274 -11.5625 48.25 C-11.66072744 46.78194708 -11.6904837 45.3092254 -11.69189453 43.83789062 C-11.69662277 42.43138245 -11.69662277 42.43138245 -11.70144653 40.99645996 C-11.6994223 39.97669067 -11.69739807 38.95692139 -11.6953125 37.90625 C-11.69626923 36.86682251 -11.69722595 35.82739502 -11.69821167 34.75646973 C-11.69889363 32.55395446 -11.69703827 30.35143721 -11.69287109 28.14892578 C-11.68752308 24.76460281 -11.69281559 21.38041256 -11.69921875 17.99609375 C-11.69855797 15.86197887 -11.69727681 13.72786408 -11.6953125 11.59375 C-11.69733673 10.57398071 -11.69936096 9.55421143 -11.70144653 8.50354004 C-11.69829437 7.56586792 -11.69514221 6.6281958 -11.69189453 5.66210938 C-11.69109894 4.83239624 -11.69030334 4.00268311 -11.68948364 3.14782715 C-11.35442788 -1.85973057 -3.77000803 0.01934578 0 0 Z M-1.5625 8.25 C-1.5625 19.14 -1.5625 30.03 -1.5625 41.25 C9.26953739 42.17192364 9.26953739 42.17192364 17.13671875 37.71875 C21.40608383 32.89808552 22.0345087 28.26568502 21.85546875 22.0078125 C21.20054603 17.6865467 19.44827067 14.4020167 16.4375 11.25 C10.55142398 7.1352592 10.55142398 7.1352592 -1.5625 8.25 Z " fill="#8B8897" transform="translate(345.5625,203.75)"/>
<path d="M0 0 C6.95177358 -0.10271234 13.90334659 -0.17200629 20.85571289 -0.21972656 C23.21320914 -0.23965223 25.57065721 -0.26680278 27.92797852 -0.30175781 C48.8897184 -0.60445442 67.57990257 -0.27106763 83.4375 15.0625 C91 22.74638844 91 22.74638844 91 28 C90.34 28 89.68 28 89 28 C89 27.34 89 26.68 89 26 C88.38125 25.71125 87.7625 25.4225 87.125 25.125 C85 24 85 24 83 22 C82.5978125 20.515 82.5978125 20.515 82.1875 19 C81.2945785 15.79029933 81.2945785 15.79029933 78.375 14.625 C77.59125 14.41875 76.8075 14.2125 76 14 C76 13.34 76 12.68 76 12 C75.0925 11.731875 74.185 11.46375 73.25 11.1875 C70 10 70 10 68.125 8.4375 C64.90230779 6.25744351 61.85010657 6.32084221 58 6 C58 5.34 58 4.68 58 4 C56.906875 4 55.81375 4 54.6875 4 C50.38820171 4 46.0900516 3.98470037 41.79089355 3.94869995 C38.28591699 3.9221471 34.78091949 3.90573131 31.27587891 3.89013672 C29.42526998 3.88004545 27.57467712 3.86637342 25.72412109 3.84912109 C23.05562436 3.82490089 20.38733645 3.81352742 17.71875 3.8046875 C16.47647644 3.78920364 16.47647644 3.78920364 15.20910645 3.77340698 C11.28364897 3.77263777 9.34137653 3.77241565 6 6 C5.34 5.67 4.68 5.34 4 5 C3.67 38.99 3.34 72.98 3 108 C29.8401137 109.42843049 29.8401137 109.42843049 56 106 C56.33 105.34 56.66 104.68 57 104 C57 104.66 57 105.32 57 106 C57.66 106 58.32 106 59 106 C59.33 105.34 59.66 104.68 60 104 C60.804375 103.896875 61.60875 103.79375 62.4375 103.6875 C68.51478469 102.51469067 73.87853535 99.41430977 79 96 C79.66 96.66 80.32 97.32 81 98 C67.38356164 108 67.38356164 108 61 108 C60.67 108.66 60.34 109.32 60 110 C54.13532638 111.57012883 47.88017117 111.14365087 41.85546875 111.1328125 C40.68993973 111.13376923 39.52441071 111.13472595 38.32356262 111.13571167 C35.86845851 111.13639057 33.41335259 111.13455656 30.95825195 111.13037109 C27.18371609 111.12499461 23.40929792 111.13033829 19.63476562 111.13671875 C17.24999974 111.13605839 14.86523392 111.13477811 12.48046875 111.1328125 C11.34514206 111.13483673 10.20981537 111.13686096 9.04008484 111.13894653 C7.99842667 111.13579437 6.95676849 111.13264221 5.88354492 111.12939453 C4.96232346 111.12859894 4.04110199 111.12780334 3.09196472 111.12698364 C1 111 1 111 0 110 C-0.09554399 108.57053529 -0.12188438 107.13637335 -0.12025452 105.70372009 C-0.12162918 104.77678848 -0.12300385 103.84985687 -0.12442017 102.89483643 C-0.12082489 101.86985046 -0.11722961 100.8448645 -0.11352539 99.78881836 C-0.11367142 98.71577957 -0.11381744 97.64274078 -0.1139679 96.53718567 C-0.11326824 92.97138484 -0.10547338 89.40563551 -0.09765625 85.83984375 C-0.09579226 83.37504607 -0.09436827 80.91024801 -0.09336853 78.44544983 C-0.08954187 71.94346095 -0.07971032 65.44149425 -0.06866455 58.93951416 C-0.05791748 52.31059183 -0.05387159 45.68166307 -0.04882812 39.05273438 C-0.03808819 26.03514676 -0.02120097 13.01757456 0 0 Z " fill="#08031A" transform="translate(334,74)"/>
<path d="M0 0 C5.1307535 5.00561317 7.848756 9.11246412 8.25 16.4375 C7.98815378 22.70593986 5.7890757 26.93413497 1.5625 31.5 C-2.69419068 35.28469623 -6.87907304 35.62027508 -12.4375 35.5 C-18.56586088 33.86577043 -21.97094571 30.62255156 -25.4375 25.5 C-28.11297283 20.26537925 -27.76751588 15.10506694 -26.4375 9.5 C-24.65296541 5.26708394 -22.49561988 2.32584967 -18.875 -0.5 C-12.51334406 -2.35066355 -6.12998956 -2.67490453 0 0 Z M-16.4375 7.5 C-19.17477297 11.94438944 -18.98683095 16.4330369 -18.4375 21.5 C-16.74346911 25.28365532 -16.74346911 25.28365532 -13.4375 27.5 C-7.7543817 28.18429023 -7.7543817 28.18429023 -3 25.5625 C-0.94496227 21.53462605 -0.22270863 18.01857408 -0.4375 13.5 C-1.92918614 9.39786311 -2.79352313 7.92931791 -6.4375 5.5 C-10.31470334 5.17002525 -13.2164089 5.19922064 -16.4375 7.5 Z " fill="#8E8A9D" transform="translate(406.4375,218.5)"/>
<path d="M0 0 C2.8977017 0.96227617 3.78920135 1.72945003 6 4 C6.875 7.25 6.875 7.25 7 10 C4.69 10 2.38 10 0 10 C-0.33 9.34 -0.66 8.68 -1 8 C-3.12576782 7.53348793 -3.12576782 7.53348793 -5.5625 7.375 C-6.38878906 7.30023438 -7.21507812 7.22546875 -8.06640625 7.1484375 C-8.70449219 7.09945312 -9.34257812 7.05046875 -10 7 C-9.67 8.65 -9.34 10.3 -9 12 C-8.19175781 12.24234375 -7.38351562 12.4846875 -6.55078125 12.734375 C4.85362782 16.31114986 4.85362782 16.31114986 8 20 C9.37455684 23.86594111 9.07774713 25.74516219 7.875 29.6875 C5.81593182 33.32518711 4.83848364 34.46460654 1 36 C-4.60624211 37.17550238 -8.61187379 37.33824345 -14 35 C-17.00313745 32.4822181 -18.87719718 30.12978597 -19.3125 26.125 C-19.209375 25.42375 -19.10625 24.7225 -19 24 C-16.69 24 -14.38 24 -12 24 C-11.773125 24.639375 -11.54625 25.27875 -11.3125 25.9375 C-10.1609096 28.22106421 -10.1609096 28.22106421 -7.625 28.8125 C-5.10421049 28.99255639 -3.3796376 28.79321253 -1 28 C-1.495 25.525 -1.495 25.525 -2 23 C-2.81984375 22.75765625 -3.6396875 22.5153125 -4.484375 22.265625 C-6.10085938 21.76289063 -6.10085938 21.76289063 -7.75 21.25 C-9.35101563 20.76273438 -9.35101563 20.76273438 -10.984375 20.265625 C-14.18882724 18.92075126 -15.83448001 17.69295343 -18 15 C-19.05658777 11.12584484 -19.41746983 8.96677224 -17.8125 5.25 C-12.79253349 -0.98168257 -7.62680252 -0.90625557 0 0 Z " fill="#8D8A9D" transform="translate(473,217)"/>
<path d="M0 0 C2.40805584 2.11617029 4.29601572 4.1300609 6.0625 6.8125 C6.0625 8.1325 6.0625 9.4525 6.0625 10.8125 C0.72744845 11.1681701 0.72744845 11.1681701 -1.9375 10.8125 C-3.27083333 9.47916667 -4.60416667 8.14583333 -5.9375 6.8125 C-9.52655085 6.64664809 -9.52655085 6.64664809 -12.9375 7.8125 C-15.01168262 9.95359174 -15.85908182 11.2863393 -16.30078125 14.25 C-16.28402344 15.095625 -16.26726562 15.94125 -16.25 16.8125 C-16.24613281 17.658125 -16.24226563 18.50375 -16.23828125 19.375 C-15.91867503 21.96505559 -15.32658923 23.61351776 -13.9375 25.8125 C-11.53204362 27.01522819 -9.98753047 26.91321472 -7.3125 26.875 C-6.49523437 26.86597656 -5.67796875 26.85695312 -4.8359375 26.84765625 C-4.20945312 26.83605469 -3.58296875 26.82445312 -2.9375 26.8125 C-2.6075 25.4925 -2.2775 24.1725 -1.9375 22.8125 C1.5275 22.3175 1.5275 22.3175 5.0625 21.8125 C6.04623155 24.94255494 6.2499467 26.37512437 4.9375 29.4375 C1.78336721 33.43273487 -1.29943517 34.88654803 -6.25 35.6875 C-11.02800769 36.06115451 -14.81787532 35.29506858 -18.9375 32.8125 C-22.72984823 29.53991523 -25.02728258 25.72767408 -25.9375 20.8125 C-26.09409197 14.20800333 -25.81695617 8.31218706 -21.37109375 3.1484375 C-15.59006322 -2.23878986 -7.21067578 -2.91495404 0 0 Z " fill="#8D8A9B" transform="translate(442.9375,218.1875)"/>
<path d="M0 0 C3.535671 -0.19539294 7.06994571 -0.31338328 10.609375 -0.41796875 C11.60630371 -0.47400269 12.60323242 -0.53003662 13.63037109 -0.58776855 C20.90248719 -0.748936 20.90248719 -0.748936 24.03131104 1.38615417 C28.83168081 6.40703672 31.58129389 12.54600359 34 19 C28.01558825 16.43525211 25.48799901 12.41048394 22.83203125 6.70703125 C22.12052968 5.01192589 22.12052968 5.01192589 21 4 C15.39 4 9.78 4 4 4 C3.67 38.32 3.34 72.64 3 108 C6.96 108 10.92 108 15 108 C15.66 108.33 16.32 108.66 17 109 C17 109.66 17 110.32 17 111 C14.35409986 111.02684679 11.70846904 111.04676357 9.0625 111.0625 C8.30775391 111.07087891 7.55300781 111.07925781 6.77539062 111.08789062 C4.85005687 111.09652441 2.92464419 111.05224333 1 111 C0 110 0 110 -0.12304783 108.1590414 C-0.12212604 107.34878537 -0.12120424 106.53852934 -0.12025452 105.70372009 C-0.12162918 104.77678848 -0.12300385 103.84985687 -0.12442017 102.89483643 C-0.12082489 101.86985046 -0.11722961 100.8448645 -0.11352539 99.78881836 C-0.11367142 98.71577957 -0.11381744 97.64274078 -0.1139679 96.53718567 C-0.11326824 92.97138484 -0.10547338 89.40563551 -0.09765625 85.83984375 C-0.09579226 83.37504607 -0.09436827 80.91024801 -0.09336853 78.44544983 C-0.08954187 71.94346095 -0.07971032 65.44149425 -0.06866455 58.93951416 C-0.05791748 52.31059183 -0.05387159 45.68166307 -0.04882812 39.05273438 C-0.03808819 26.03514676 -0.02120097 13.01757456 0 0 Z " fill="#070317" transform="translate(664,74)"/>
<path d="M0 0 C-0.99 -1.32 -1.98 -2.64 -3 -4 C0.87915244 -3.42531075 3.14756605 -1.62115553 6 1 C6.495 2.485 6.495 2.485 7 4 C6.01 4 5.02 4 4 4 C3.34 3.34 2.68 2.68 2 2 C1.01 2.33 0.02 2.66 -1 3 C-1.66 2.67 -2.32 2.34 -3 2 C-3.33 2.66 -3.66 3.32 -4 4 C-4.52078125 3.68289062 -5.0415625 3.36578125 -5.578125 3.0390625 C-8.67408709 1.71079489 -11.39404121 1.57635753 -14.75 1.375 C-16.8125 1.25125 -18.875 1.1275 -21 1 C-21 7.93 -21 14.86 -21 22 C-21.66 22.33 -22.32 22.66 -23 23 C-23.46898963 25.8159849 -23.46898963 25.8159849 -23.625 29.0625 C-23.69976562 30.16722656 -23.77453125 31.27195313 -23.8515625 32.41015625 C-23.90054687 33.26480469 -23.94953125 34.11945313 -24 35 C-20.71480525 36.09506492 -18.26336585 36.09960608 -14.8125 36.0625 C-13.72582031 36.05347656 -12.63914062 36.04445312 -11.51953125 36.03515625 C-10.68808594 36.02355469 -9.85664063 36.01195312 -9 36 C-11 38 -11 38 -13 39 C-17.95 39 -22.9 39 -28 39 C-28 24.81 -28 10.62 -28 -4 C-8 -5.17647059 -8 -5.17647059 0 0 Z " fill="#918DA0" transform="translate(365,211)"/>
<path d="M0 0 C3.96 0 7.92 0 12 0 C12 0.33 12 0.66 12 1 C13.093125 0.95875 14.18625 0.9175 15.3125 0.875 C19 1 19 1 22 3 C24.18292578 3.86578981 26.37117235 4.71820142 28.5625 5.5625 C37.68590383 9.28167746 43.98609241 15.25811444 50 23 C48.68 23.33 47.36 23.66 46 24 C45.484375 23.113125 44.96875 22.22625 44.4375 21.3125 C42.69497586 18.65153353 40.87641755 17.03468536 38.25 15.25 C37.1775 14.5075 36.105 13.765 35 13 C35 12.34 35 11.68 35 11 C34.0925 10.87625 33.185 10.7525 32.25 10.625 C29.41029677 10.07890323 27.47409409 9.42736197 25 8 C25 7.34 25 6.68 25 6 C24.13375 6.2784375 24.13375 6.2784375 23.25 6.5625 C20.77399031 7.04394633 19.39805371 6.63948099 17 6 C16.34 6.33 15.68 6.66 15 7 C14.42765625 6.69707031 13.8553125 6.39414063 13.265625 6.08203125 C8.18807641 3.65706408 1.0629782 4.24460335 -4.3125 5.5703125 C-5.58632118 6.05826819 -6.84694657 6.58245673 -8.08984375 7.14453125 C-10.97316164 8.43583313 -13.99490993 9.25689357 -17.01953125 10.15625 C-19.25314932 11.1078506 -20.39628892 12.19869701 -22 14 C-24 16 -24 16 -26.4375 17.375 C-29.0819798 18.83726575 -29.0819798 18.83726575 -30.625 21.1875 C-31.07875 21.785625 -31.5325 22.38375 -32 23 C-32.99 23 -33.98 23 -35 23 C-35.13921875 23.58652344 -35.2784375 24.17304687 -35.421875 24.77734375 C-36.56363508 29.16694837 -38.15050766 33.39743009 -40.2734375 37.40234375 C-44.50616636 45.53750182 -44.87588877 53.00757754 -45 62 C-45.66 62 -46.32 62 -47 62 C-47.79972076 46.13887167 -44.9198692 31.74448014 -34.66015625 19.12109375 C-25.11351587 8.81745105 -13.7814719 3.65028306 0 1 C0 0.67 0 0.34 0 0 Z " fill="#080317" transform="translate(589,70)"/>
<path d="M0 0 C6.98375464 8.89766991 10.47996183 18.72089706 10 30 C10.66 30 11.32 30 12 30 C12 32.64 12 35.28 12 38 C11.34 38 10.68 38 10 38 C10.03222656 38.71800781 10.06445312 39.43601563 10.09765625 40.17578125 C10.00977778 48.01649353 8.15296064 53.84421699 4.8125 60.875 C4.25091187 62.06863159 4.25091187 62.06863159 3.67797852 63.28637695 C-2.15420129 75.02079647 -11.89303753 84.246329 -24.4375 88.5 C-26.27998468 89.04146489 -28.13426248 89.54507416 -30 90 C-30.74894531 90.19207031 -31.49789062 90.38414062 -32.26953125 90.58203125 C-36.26472493 91.19359881 -40.21400883 91.18434195 -44.25 91.1875 C-45.46236328 91.20586914 -45.46236328 91.20586914 -46.69921875 91.22460938 C-52.37541732 91.23823225 -57.51659845 90.45318374 -63 89 C-62.505 88.01 -62.505 88.01 -62 87 C-60.824375 87.144375 -59.64875 87.28875 -58.4375 87.4375 C-56.62512145 87.62617032 -54.81260101 87.81347905 -53 88 C-51.81664062 88.14179688 -50.63328125 88.28359375 -49.4140625 88.4296875 C-42.12460487 89.15419749 -36.69218515 89.2883678 -30.05078125 86.0078125 C-28 85 -28 85 -25.85546875 84.4921875 C-23.77058525 84.10536541 -23.77058525 84.10536541 -22 82 C-19.875 82.375 -19.875 82.375 -18 83 C-18 82.34 -18 81.68 -18 81 C-16.00715862 79.6559907 -14.00580329 78.32458708 -12 77 C-4.32951981 70.04231127 -4.32951981 70.04231127 0 61 C0.66 60.67 1.32 60.34 2 60 C2.87640654 57.75768225 2.87640654 57.75768225 3.5625 55.125 C3.81128906 54.24070313 4.06007813 53.35640625 4.31640625 52.4453125 C4.54199219 51.63835937 4.76757812 50.83140625 5 50 C5.33 49.01 5.66 48.02 6 47 C6.23420597 43.12910665 6.18518385 39.2522272 6.1875 35.375 C6.19974609 34.31925781 6.21199219 33.26351562 6.22460938 32.17578125 C6.24164617 23.00998714 4.96551983 15.27586746 1 7 C0.505 6.505 0.505 6.505 0 6 C-0.04080783 4.00041636 -0.04254356 1.99954746 0 0 Z M10 33 C11 35 11 35 11 35 Z " fill="#050116" transform="translate(640,95)"/>
<path d="M0 0 C0.90720795 0.00141495 1.81441589 0.0028299 2.74911499 0.00428772 C5.65308905 0.00989529 8.55698665 0.02244907 11.4609375 0.03515625 C13.42708222 0.04017027 15.39322815 0.04473335 17.359375 0.04882812 C22.1849254 0.05986719 27.01041847 0.0771369 31.8359375 0.09765625 C31.8359375 0.75765625 31.8359375 1.41765625 31.8359375 2.09765625 C32.8259375 2.59265625 32.8259375 2.59265625 33.8359375 3.09765625 C34.36328125 5.13671875 34.36328125 5.13671875 34.7734375 7.72265625 C35.59853835 12.27045621 36.83943659 15.93827936 38.8359375 20.09765625 C39.1659375 20.88140625 39.4959375 21.66515625 39.8359375 22.47265625 C40.81047314 24.44595694 40.81047314 24.44595694 43.8359375 25.09765625 C43.3409375 26.58265625 43.3409375 26.58265625 42.8359375 28.09765625 C46.7959375 28.09765625 50.7559375 28.09765625 54.8359375 28.09765625 C54.8359375 28.42765625 54.8359375 28.75765625 54.8359375 29.09765625 C49.5559375 29.09765625 44.2759375 29.09765625 38.8359375 29.09765625 C33.8359375 19.4202369 33.8359375 19.4202369 33.8359375 15.09765625 C32.8459375 14.60265625 32.8459375 14.60265625 31.8359375 14.09765625 C30.8459375 8.65265625 30.8459375 8.65265625 29.8359375 3.09765625 C16.9659375 3.09765625 4.0959375 3.09765625 -9.1640625 3.09765625 C-10.1540625 6.72765625 -11.1440625 10.35765625 -12.1640625 14.09765625 C-12.86649852 16.64095906 -13.5738786 19.18290871 -14.2890625 21.72265625 C-14.62164062 22.91117188 -14.95421875 24.0996875 -15.296875 25.32421875 C-16.1640625 28.09765625 -16.1640625 28.09765625 -17.1640625 29.09765625 C-18.50673663 29.18397499 -19.85380572 29.20472098 -21.19921875 29.1953125 C-22.00810547 29.19208984 -22.81699219 29.18886719 -23.65039062 29.18554688 C-24.50052734 29.17716797 -25.35066406 29.16878906 -26.2265625 29.16015625 C-27.08056641 29.15564453 -27.93457031 29.15113281 -28.81445312 29.14648438 C-30.93101913 29.13465998 -33.04754935 29.11672394 -35.1640625 29.09765625 C-35.1640625 28.76765625 -35.1640625 28.43765625 -35.1640625 28.09765625 C-32.1940625 27.76765625 -29.2240625 27.43765625 -26.1640625 27.09765625 C-26.1640625 26.43765625 -26.1640625 25.77765625 -26.1640625 25.09765625 C-24.1840625 25.09765625 -22.2040625 25.09765625 -20.1640625 25.09765625 C-20.009375 24.32421875 -20.009375 24.32421875 -19.8515625 23.53515625 C-18.92444398 20.24809968 -17.53496186 17.22330679 -16.1640625 14.09765625 C-15.20598471 11.76234164 -14.28023214 9.42911855 -13.4453125 7.046875 C-13.1875 6.32113281 -12.9296875 5.59539062 -12.6640625 4.84765625 C-12.426875 4.161875 -12.1896875 3.47609375 -11.9453125 2.76953125 C-9.93203448 -1.5388837 -4.05558929 -0.02361195 0 0 Z " fill="#060118" transform="translate(477.1640625,155.90234375)"/>
<path d="M0 0 C0 0.66 0 1.32 0 2 C-1.051875 2.680625 -2.10375 3.36125 -3.1875 4.0625 C-10.25414827 8.97346365 -12.69558333 16.77680141 -14.49609375 24.89453125 C-16.19748406 35.37984365 -15.12925407 46.22180745 -10.3125 55.8125 C-6.99955953 60.37898551 -3.31522369 65.0471551 2.296875 66.66015625 C4.7088311 67.00376276 4.7088311 67.00376276 8 67 C8 67.33 8 67.66 8 68 C9.79158489 68.02696365 11.58328473 68.04637917 13.375 68.0625 C14.37273438 68.07410156 15.37046875 68.08570313 16.3984375 68.09765625 C18.98432453 68.18006602 18.98432453 68.18006602 21 67 C21.9075 66.896875 22.815 66.79375 23.75 66.6875 C29.52929091 65.46495769 32.82000739 62.58117486 36.1875 57.875 C39.16040238 53.18546107 40.72097138 48.37416413 42 43 C42.99 43.33 43.98 43.66 45 44 C45.6875 46.0625 45.6875 46.0625 46 48 C45.01 48.495 45.01 48.495 44 49 C42.97368997 51.17311838 42.97368997 51.17311838 42.0625 53.75 C39.45211249 60.46242504 37.49655804 64.37691956 31 68 C28.67549827 68.82617833 26.40525524 69.42273874 24 70 C24 70.33 24 70.66 24 71 C17.92487615 72.51878096 12.07876827 72.38943275 6 71 C5.01 71 4.02 71 3 71 C-3.6191653 68.96333375 -6.73393072 65.30163227 -11 60 C-11.66 59.34 -12.32 58.68 -13 58 C-13.61838552 55.41909933 -14.01653431 52.83460345 -14.4375 50.21484375 C-14.623125 49.48394531 -14.80875 48.75304687 -15 48 C-15.66 47.67 -16.32 47.34 -17 47 C-17.495 45.515 -17.495 45.515 -18 44 C-17.67 43.34 -17.34 42.68 -17 42 C-17.09000378 40.5163893 -17.24646818 39.03651093 -17.4375 37.5625 C-18.9273108 23.79664818 -17.43919322 15.14237229 -9 4 C-6.23454533 0.9503758 -4.14766782 0 0 0 Z " fill="#070218" transform="translate(582,95)"/>
<path d="M0 0 C0.33 0 0.66 0 1 0 C1.02505615 0.97348389 1.0501123 1.94696777 1.07592773 2.94995117 C1.17037278 6.57491347 1.27050167 10.19970066 1.37231445 13.82446289 C1.41552339 15.39082736 1.45720791 16.95723467 1.49731445 18.52368164 C1.55535871 20.7802418 1.61895302 23.03658908 1.68359375 25.29296875 C1.70030624 25.98899704 1.71701874 26.68502533 1.73423767 27.40214539 C1.84408419 31.03872797 2.15721991 34.45792427 3 38 C6.12498063 38.02895976 9.2499269 38.04678483 12.375 38.0625 C13.26445312 38.07087891 14.15390625 38.07925781 15.0703125 38.08789062 C15.92109375 38.09111328 16.771875 38.09433594 17.6484375 38.09765625 C18.82672119 38.10551147 18.82672119 38.10551147 20.02880859 38.11352539 C22.07772668 38.12573953 22.07772668 38.12573953 24 37 C25.19625 36.9175 26.3925 36.835 27.625 36.75 C33.32605301 36.05676851 37.72103709 33.6036856 41.5078125 29.27734375 C45.12571848 24.00213353 46.60276943 18.17962138 48 12 C48.99 12.33 49.98 12.66 51 13 C50.81518813 21.19892658 48.93449334 26.59616355 43.4609375 32.72265625 C42 34 42 34 40 34 C40 34.66 40 35.32 40 36 C39.195625 36.28875 38.39125 36.5775 37.5625 36.875 C34.8673532 37.73262568 34.8673532 37.73262568 34 40 C30.54956883 41.15014372 27.64717645 42 24 42 C24 41.34 24 40.68 24 40 C22.4221875 40.495 22.4221875 40.495 20.8125 41 C14.61618855 42.55184902 6.81734366 43.39530492 0.734375 41.171875 C-1 40 -1 40 -3 37 C-3.20497101 34.19872957 -3.26272884 32.52545768 -2 30 C-2.33 29.113125 -2.66 28.22625 -3 27.3125 C-4.19925657 23.33996261 -3.65045196 21.09784736 -3 17 C-3.03267492 13.65898956 -3.12442976 10.3267727 -3.2578125 6.98828125 C-2.97148934 3.66953557 -2.29075684 2.36558055 0 0 Z " fill="#0D061F" transform="translate(358,124)"/>
<path d="M0 0 C2 0.875 2 0.875 4 2 C4.66 2.33 5.32 2.66 6 3 C5.67 5.64 5.34 8.28 5 11 C5.66 11.33 6.32 11.66 7 12 C7.79316524 14.26370518 8.48667763 16.56285451 9.125 18.875 C9.47820312 20.13054687 9.83140625 21.38609375 10.1953125 22.6796875 C11 26 11 26 11 29 C11.66 29.66 12.32 30.32 13 31 C15.4461282 34.74113725 15.56460349 38.64603495 16 43 C13.0531794 45.54440802 11.26400629 46.37792836 7.375 46.36328125 C6.50359375 46.36263672 5.6321875 46.36199219 4.734375 46.36132812 C3.83203125 46.34521484 2.9296875 46.32910156 2 46.3125 C0.64648438 46.31733398 0.64648438 46.31733398 -0.734375 46.32226562 C-5.10316801 46.28672071 -8.14124463 46.21294775 -12 44 C-12.66 44.66 -13.32 45.32 -14 46 C-15.53450986 40.11771222 -14.42156681 36.71691196 -11.91015625 31.234375 C-10.81137727 28.93904947 -10.81137727 28.93904947 -11 26 C-10.34 25.34 -9.68 24.68 -9 24 C-8.32348793 21.80295489 -8.32348793 21.80295489 -7.875 19.375 C-7.70742188 18.55773437 -7.53984375 17.74046875 -7.3671875 16.8984375 C-7.24601562 16.27195312 -7.12484375 15.64546875 -7 15 C-6.34 15 -5.68 15 -5 15 C-4.86722656 14.24074219 -4.73445313 13.48148438 -4.59765625 12.69921875 C-4.42105469 11.70535156 -4.24445313 10.71148437 -4.0625 9.6875 C-3.88847656 8.70136719 -3.71445312 7.71523437 -3.53515625 6.69921875 C-3 4 -3 4 -2 1 C-1.34 0.67 -0.68 0.34 0 0 Z M0 3 C-1.73677104 8.2296654 -3.46384194 13.46239426 -5.18188477 18.69824219 C-5.76807414 20.48004986 -6.35693455 22.26098106 -6.94848633 24.04101562 C-7.79687065 26.59541336 -8.63569166 29.15277884 -9.47265625 31.7109375 C-9.74030289 32.50994476 -10.00794952 33.30895203 -10.28370667 34.13217163 C-11.85911362 38.08672982 -11.85911362 38.08672982 -11 42 C-9.99440206 43.22784809 -9.99440206 43.22784809 -7.95874023 43.11352539 C-7.08419189 43.10828857 -6.20964355 43.10305176 -5.30859375 43.09765625 C-4.36435547 43.09443359 -3.42011719 43.09121094 -2.44726562 43.08789062 C-0.95743164 43.07532227 -0.95743164 43.07532227 0.5625 43.0625 C1.55958984 43.05798828 2.55667969 43.05347656 3.58398438 43.04882812 C6.05604849 43.03700007 8.52799518 43.02051849 11 43 C11.96237241 38.09190073 11.96088776 35.52706431 10 31 C9.26195908 28.80110341 8.54211758 26.59605356 7.8359375 24.38671875 C7.43632812 23.13955078 7.03671875 21.89238281 6.625 20.60742188 C6.20829422 19.30079372 5.79162804 17.99415294 5.375 16.6875 C4.95068584 15.36127532 4.52620832 14.0351029 4.1015625 12.70898438 C3.06610077 9.47316647 2.03230715 6.2368254 1 3 C0.67 3 0.34 3 0 3 Z M12 39 C12 40.32 12 41.64 12 43 C12.66 42.67 13.32 42.34 14 42 C13.34 41.01 12.68 40.02 12 39 Z " fill="#050115" transform="translate(487,96)"/>
<path d="M0 0 C0.99 0 1.98 0 3 0 C3 0.66 3 1.32 3 2 C3.66 2 4.32 2 5 2 C5.9765625 3.79036458 6.953125 5.58072917 7.9296875 7.37109375 C8.91410024 9.16618315 8.91410024 9.16618315 11 10 C12.05469229 11.63260588 13.04564215 13.30678446 14 15 C14.52980469 15.93199219 15.05960938 16.86398438 15.60546875 17.82421875 C16.12753906 18.76910156 16.64960937 19.71398437 17.1875 20.6875 C17.71730469 21.64011719 18.24710938 22.59273437 18.79296875 23.57421875 C20 26 20 26 20 28 C20.66 28 21.32 28 22 28 C22.33 29.32 22.66 30.64 23 32 C23.99 32 24.98 32 26 32 C27.54779543 34.26216255 28.77612283 36.55224566 30 39 C29.67 39.66 29.34 40.32 29 41 C29.66 41 30.32 41 31 41 C32.5078125 42.86328125 32.5078125 42.86328125 34.125 45.3125 C34.66382813 46.11300781 35.20265625 46.91351563 35.7578125 47.73828125 C37 50 37 50 37 53 C42.94 53 48.88 53 55 53 C56.80330533 49.39338934 57.46599103 46.91606575 58 43 C58.33 43 58.66 43 59 43 C59.33 29.14 59.66 15.28 60 1 C60.33 1 60.66 1 61 1 C61 19.15 61 37.3 61 56 C55.00300682 58.99849659 47.22327117 59.07336072 40.73388672 58.02636719 C32.3680575 54.88563259 27.92541951 44.38630772 23.75634766 37.04833984 C21.2513414 32.70061839 18.4491287 28.58162672 15.625 24.4375 C14.67340289 22.99940952 13.72285527 21.56062394 12.7734375 20.12109375 C9.62713081 15.39940703 6.32016917 10.79569575 2.94384766 6.23608398 C0 2.21071086 0 2.21071086 0 0 Z " fill="#040111" transform="translate(697,128)"/>
<path d="M0 0 C2.8977017 0.96227617 3.78920135 1.72945003 6 4 C6.875 7.25 6.875 7.25 7 10 C4.69 10 2.38 10 0 10 C-0.33 9.34 -0.66 8.68 -1 8 C-3.12576782 7.53348793 -3.12576782 7.53348793 -5.5625 7.375 C-6.38878906 7.30023438 -7.21507812 7.22546875 -8.06640625 7.1484375 C-8.70449219 7.09945312 -9.34257812 7.05046875 -10 7 C-9.67 8.65 -9.34 10.3 -9 12 C-8.19175781 12.23074219 -7.38351562 12.46148437 -6.55078125 12.69921875 C4.06326889 15.93848858 4.06326889 15.93848858 8 21 C6.68 21 5.36 21 4 21 C4 20.34 4 19.68 4 19 C3.35933594 18.81824219 2.71867187 18.63648438 2.05859375 18.44921875 C-3.14395897 16.93729955 -8.07144327 15.24999329 -13 13 C-13.25 7.375 -13.25 7.375 -11 4 C-14.11785113 4.64644661 -14.11785113 4.64644661 -15 7 C-15.44082992 11.19655089 -15.44082992 11.19655089 -13.625 14.8125 C-11.99913203 16.06987173 -11.99913203 16.06987173 -10 17 C-10 17.99 -10 18.98 -10 20 C-16.00738007 17.88929889 -16.00738007 17.88929889 -18 15 C-18.9956513 11.15963069 -19.40176584 8.93040511 -17.8125 5.25 C-12.79253349 -0.98168257 -7.62680252 -0.90625557 0 0 Z " fill="#888596" transform="translate(473,217)"/>
<path d="M0 0 C2.88354492 -0.13452148 2.88354492 -0.13452148 6 0 C7.86328125 2.15234375 7.86328125 2.15234375 9.3125 4.9375 C9.80363281 5.85402344 10.29476562 6.77054687 10.80078125 7.71484375 C11.19652344 8.46894531 11.59226562 9.22304687 12 10 C12.33 10.33 12.66 10.66 13 11 C13.04063832 12.66617115 13.042721 14.33388095 13 16 C9.87595585 13.09140717 8.28510345 10.80850575 6 7 C5.67 23.83 5.34 40.66 5 58 C4.67 58 4.34 58 4 58 C4 40.18 4 22.36 4 4 C3.67 24.13 3.34 44.26 3 65 C2.34 64.67 1.68 64.34 1 64 C-0.05128007 50.13898485 -0.11869617 36.3327976 -0.0625 22.4375 C-0.05747053 20.25065208 -0.0529102 18.06380302 -0.04882812 15.87695312 C-0.03794743 10.58461021 -0.02132612 5.29231061 0 0 Z " fill="#0A0419" transform="translate(684,112)"/>
<path d="M0 0 C2.56857882 2.25288757 3.61591902 4.12598103 4.625 7.375 C4.86476563 8.12523438 5.10453125 8.87546875 5.3515625 9.6484375 C10.08205577 26.80359985 7.66578353 44.94737133 -0.8671875 60.28320312 C-3.08014695 64.01325 -5.4748934 66.49434932 -9 69 C-9.66 68.34 -10.32 67.68 -11 67 C-10.0409375 65.824375 -10.0409375 65.824375 -9.0625 64.625 C-7.01857687 62.20460719 -7.01857687 62.20460719 -6 60 C-5.34 60 -4.68 60 -4 60 C-3.896875 59.236875 -3.79375 58.47375 -3.6875 57.6875 C-3 55 -3 55 -1.4375 53.5625 C0.71713784 51.22050235 0.06309108 49.09146305 0 46 C0.6492959 44.65812182 1.31731862 43.32520503 2 42 C2.96611126 36.62814733 3.21370818 31.37673698 3.25 25.9375 C3.270625 25.16083984 3.29125 24.38417969 3.3125 23.58398438 C3.34669884 18.53537999 2.4814287 15.49442444 0 11 C-0.546875 8.26171875 -0.546875 8.26171875 -0.75 5.6875 C-0.82734375 4.82511719 -0.9046875 3.96273437 -0.984375 3.07421875 C-0.98953125 2.38972656 -0.9946875 1.70523438 -1 1 C-0.67 0.67 -0.34 0.34 0 0 Z " fill="#030012" transform="translate(425,102)"/>
<path d="M0 0 C0.66 0.66 1.32 1.32 2 2 C3.5229555 2.90717566 5.06708235 3.77927327 6.625 4.625 C7.44226563 5.07101563 8.25953125 5.51703125 9.1015625 5.9765625 C10.04128906 6.48316406 10.04128906 6.48316406 11 7 C11 7.66 11 8.32 11 9 C11.99 9 12.98 9 14 9 C14 9.66 14 10.32 14 11 C14.99 11.33 15.98 11.66 17 12 C18.16796875 14.28515625 18.16796875 14.28515625 19.1875 17.0625 C19.53167969 17.98160156 19.87585938 18.90070313 20.23046875 19.84765625 C20.48441406 20.55792969 20.73835937 21.26820312 21 22 C21.66 22 22.32 22 23 22 C23 30.25 23 38.5 23 47 C22.01 47.33 21.02 47.66 20 48 C19.97421875 46.83984375 19.9484375 45.6796875 19.921875 44.484375 C19.54274775 32.66422711 18.64937687 21.22586107 10.83984375 11.6875 C5.23415373 6.5459754 -1.77426034 4.24379267 -9.25 3.8125 C-13.66829501 4.03341475 -17.72440898 4.91413561 -22 6 C-21.34 4.35 -20.68 2.7 -20 1 C-13.40453552 0.13502105 -6.64758446 -0.67044014 0 0 Z " fill="#060118" transform="translate(605,90)"/>
<path d="M0 0 C9.57 0 19.14 0 29 0 C29.495 1.98 29.495 1.98 30 4 C29.01 4.66 28.02 5.32 27 6 C25 4 25 4 24 2 C23.34 2.33 22.68 2.66 22 3 C20.47851674 3.08372659 18.95344222 3.10730027 17.4296875 3.09765625 C16.53378906 3.09443359 15.63789063 3.09121094 14.71484375 3.08789062 C13.77769531 3.07951172 12.84054687 3.07113281 11.875 3.0625 C10.93011719 3.05798828 9.98523438 3.05347656 9.01171875 3.04882812 C6.67441613 3.03702357 4.33723939 3.02055759 2 3 C2.33 3.99 2.66 4.98 3 6 C2.54367187 6.36480469 2.08734375 6.72960937 1.6171875 7.10546875 C-0.57267181 9.67088364 -1.04037551 12.05155564 -1.875 15.3125 C-3.29761945 20.52515142 -4.7741097 25.69147027 -6.5 30.8125 C-7.07234375 32.55466797 -7.07234375 32.55466797 -7.65625 34.33203125 C-9 37 -9 37 -11.15625 37.88671875 C-12.06890625 37.94279297 -12.06890625 37.94279297 -13 38 C-12.01591203 34.32886333 -11.01249755 30.66340022 -10 27 C-9.73703125 26.03578125 -9.4740625 25.0715625 -9.203125 24.078125 C-8.82414062 22.74007812 -8.82414062 22.74007812 -8.4375 21.375 C-8.20933594 20.55773437 -7.98117187 19.74046875 -7.74609375 18.8984375 C-7 17 -7 17 -5 16 C-4.15697123 13.59387088 -4.15697123 13.59387088 -3.5 10.75 C-2.55472716 6.94835923 -1.47158017 3.67895043 0 0 Z " fill="#070217" transform="translate(473,74)"/>
<path d="M0 0 C0.99 0.66 1.98 1.32 3 2 C3.33929183 5.22327238 2.90722099 7.91544863 2 11 C1.71125 12.134375 1.4225 13.26875 1.125 14.4375 C0 18 0 18 -1.4375 20.3125 C-3.3695501 23.63562617 -4.27060366 26.96772077 -5.3125 30.65234375 C-6 33 -6 33 -7.0625 35.5625 C-8.2320953 38.60344779 -8.8257083 41.67245754 -9.49609375 44.85546875 C-10.08458452 47.35997597 -10.98783715 49.63828669 -12 52 C-12.35858516 53.32676508 -12.7018576 54.65835921 -13 56 C-14.32 56 -15.64 56 -17 56 C-16.44498381 51.31217424 -15.52410105 47.17911005 -13.890625 42.75390625 C-13.46773193 41.59383057 -13.04483887 40.43375488 -12.60913086 39.23852539 C-11.93636108 37.41889282 -11.93636108 37.41889282 -11.25 35.5625 C-4.61603082 18.07860285 -4.61603082 18.07860285 0 0 Z " fill="#060215" transform="translate(452,129)"/>
<path d="M0 0 C7.59 0 15.18 0 23 0 C23 15.18 23 30.36 23 46 C22.67 46 22.34 46 22 46 C21.93941406 45.35933594 21.87882813 44.71867187 21.81640625 44.05859375 C21.69072266 42.76115234 21.69072266 42.76115234 21.5625 41.4375 C21.47355469 40.51839844 21.38460937 39.59929687 21.29296875 38.65234375 C21.06532342 36.59139471 20.73949897 34.54119422 20.375 32.5 C19.96161399 28.64173056 20.30581351 25.25637209 20.84375 21.4296875 C21.015918 18.75247515 20.5477979 16.61903376 20 14 C19.87609012 10.32731109 19.95570654 6.67635711 20 3 C14.39 3 8.78 3 3 3 C2.67 9.27 2.34 15.54 2 22 C1.34 22.33 0.68 22.66 0 23 C0 15.41 0 7.82 0 0 Z " fill="#07021A" transform="translate(733,74)"/>
<path d="M0 0 C0.66 0 1.32 0 2 0 C2.33 3.63 2.66 7.26 3 11 C3.99 11.33 4.98 11.66 6 12 C5.95875 12.78375 5.9175 13.5675 5.875 14.375 C5.71271266 17.16116119 5.71271266 17.16116119 8 19 C8.48354133 20.42267364 8.9154908 21.86329463 9.3125 23.3125 C10.67950497 27.65762295 12.53161004 29.97627542 16 33 C18 36 18 36 18 38 C18.99 38 19.98 38 21 38 C21 38.66 21 39.32 21 40 C22.485 40.495 22.485 40.495 24 41 C24 41.66 24 42.32 24 43 C25.32 43 26.64 43 28 43 C28 43.66 28 44.32 28 45 C28.78375 45.0825 29.5675 45.165 30.375 45.25 C33 46 33 46 34.3125 48.0625 C34.6528125 49.0215625 34.6528125 49.0215625 35 50 C24.24185621 48.32142437 16.08756227 40.33620679 9.50390625 32.13671875 C5.92665177 26.93242641 4.08648576 21.01954179 2.11328125 15.07421875 C1.0976612 11.88839293 1.0976612 11.88839293 -1 9 C-0.9765625 6.73828125 -0.9765625 6.73828125 -0.625 4.3125 C-0.51414062 3.50425781 -0.40328125 2.69601563 -0.2890625 1.86328125 C-0.19367187 1.24839844 -0.09828125 0.63351563 0 0 Z " fill="#050116" transform="translate(542,133)"/>
<path d="M0 0 C1.32 0.33 2.64 0.66 4 1 C3.2884375 1.680625 3.2884375 1.680625 2.5625 2.375 C-0.10319593 5.14732377 -0.15974021 7.13298042 -0.1875 10.875 C-0.20876953 12.17050781 -0.20876953 12.17050781 -0.23046875 13.4921875 C0.02228823 16.24252615 0.34572171 17.78108781 2 20 C4.37472715 20.84296474 4.37472715 20.84296474 7.0625 21.125 C9.78515625 21.5078125 9.78515625 21.5078125 12 22 C12.33 22.66 12.66 23.32 13 24 C10.21084611 25.39457694 8.09726736 25.1821922 5 25 C2.125 24 2.125 24 0 23 C-0.33 23.66 -0.66 24.32 -1 25 C0.051875 25.144375 1.10375 25.28875 2.1875 25.4375 C5.15460549 25.87526966 8.06794366 26.37804866 11 27 C10.67 27.99 10.34 28.98 10 30 C3.78194805 29.97180022 -0.06093039 28.99892911 -4.5625 24.6015625 C-8.77258154 19.91098252 -9.48088145 16.12559888 -10 10 C-9.01 10.33 -8.02 10.66 -7 11 C-6.375 12.7421875 -6.375 12.7421875 -6 14.875 C-5.32003272 18.09043851 -4.76622767 19.98819806 -2 22 C-2.495 20.824375 -2.495 20.824375 -3 19.625 C-4.39640249 14.56304098 -5.34878636 8.96732998 -3.1015625 4.0234375 C-2 2.375 -2 2.375 0 0 Z " fill="#888694" transform="translate(389,224)"/>
<path d="M0 0 C2.92050788 4.38076183 4.72960726 8.91842904 6 14 C6.495 15.155 6.99 16.31 7.5 17.5 C8.62811978 20.1322795 9.33162117 22.27348974 10 25 C10.52576273 26.55929307 11.07015548 28.11237755 11.62890625 29.66015625 C11.94150391 30.53607422 12.25410156 31.41199219 12.57617188 32.31445312 C13.23541226 34.1511882 13.89688288 35.98712429 14.56054688 37.82226562 C15.02750977 39.13420898 15.02750977 39.13420898 15.50390625 40.47265625 C15.79080322 41.26937744 16.0777002 42.06609863 16.37329102 42.88696289 C17 45 17 45 17 48 C15.68 47.67 14.36 47.34 13 47 C12.81824219 46.23816406 12.63648438 45.47632813 12.44921875 44.69140625 C9.70903471 33.3694414 9.70903471 33.3694414 5.3125 22.625 C4 20 4 20 4 17 C3.01 17 2.02 17 1 17 C1.33 16.01 1.66 15.02 2 14 C1.34713547 11.42719833 0.47017678 8.97727245 -0.40625 6.47265625 C-1.03482923 3.85495457 -0.88379559 2.50602564 0 0 Z " fill="#050216" transform="translate(520,128)"/>
<path d="M0 0 C0.37125 0.495 0.7425 0.99 1.125 1.5 C-1.48269447 2.61758334 -3.74107252 3.48131244 -6.5625 3.875 C-8.99016071 4.25538151 -8.99016071 4.25538151 -10.00390625 6.234375 C-12.2569481 12.09430449 -11.25912125 18.83771203 -8.875 24.5 C-9.865 24.5 -10.855 24.5 -11.875 24.5 C-14.59072728 20.94866432 -15.18497086 17.837326 -15.875 13.5 C-16.535 13.17 -17.195 12.84 -17.875 12.5 C-16.78838365 7.15746962 -15.91195842 3.41822435 -11.875 -0.5 C-8.12954315 -2.1230313 -3.26936079 -2.61548863 0 0 Z " fill="#908DA1" transform="translate(396.875,221.5)"/>
<path d="M0 0 C0.99 0.33 1.98 0.66 3 1 C2.81518813 9.19892658 0.93449334 14.59616355 -4.5390625 20.72265625 C-6 22 -6 22 -8 22 C-8 22.66 -8 23.32 -8 24 C-8.804375 24.28875 -9.60875 24.5775 -10.4375 24.875 C-13.1326468 25.73262568 -13.1326468 25.73262568 -14 28 C-17.45043117 29.15014372 -20.35282355 30 -24 30 C-24.66 28.35 -25.32 26.7 -26 25 C-25.05125 25.103125 -24.1025 25.20625 -23.125 25.3125 C-17.73403286 25.2687599 -13.34630569 23.06249592 -9 20 C-3.57371135 14.33531791 -1.60268775 7.52138551 0 0 Z " fill="#08031A" transform="translate(406,136)"/>
<path d="M0 0 C2.625 -0.625 2.625 -0.625 6 0 C8.41713344 3.11726864 10.17139893 6.51553216 12 10 C12.33 10.33 12.66 10.66 13 11 C13.04063832 12.66617115 13.042721 14.33388095 13 16 C9.87595585 13.09140717 8.28510345 10.80850575 6 7 C5.67 23.83 5.34 40.66 5 58 C4.67 58 4.34 58 4 58 C4 40.18 4 22.36 4 4 C3.34 5.32 2.68 6.64 2 8 C0 1.125 0 1.125 0 0 Z " fill="#02000B" transform="translate(684,112)"/>
<path d="M0 0 C1.32 0.33 2.64 0.66 4 1 C3.505 1.37125 3.01 1.7425 2.5 2.125 C0.40969458 4.73788178 0.89401133 6.74084851 1 10 C2.66289062 10.61488281 2.66289062 10.61488281 4.359375 11.2421875 C5.82296029 11.78634101 7.28649955 12.33061835 8.75 12.875 C9.47960937 13.14441406 10.20921875 13.41382813 10.9609375 13.69140625 C18.63373838 16.5512684 18.63373838 16.5512684 21 18 C21.75 20.125 21.75 20.125 22 22 C19.625 22.625 19.625 22.625 17 23 C15 21 15 21 13 18 C10.68970915 17.25740651 8.354248 16.588562 6 16 C5.34 15.67 4.68 15.34 4 15 C3.67 15.66 3.34 16.32 3 17 C3 16.01 3 15.02 3 14 C2.195625 13.71125 1.39125 13.4225 0.5625 13.125 C-2 12 -2 12 -3 10 C-3.30343947 6.51044604 -3.39470082 4.62494296 -1.5 1.625 C-1.005 1.08875 -0.51 0.5525 0 0 Z " fill="#918EA1" transform="translate(460,220)"/>
<path d="M0 0 C2.35020498 2.35020498 2.31914802 2.91909622 2.375 6.125 C2.24136607 12.043074 0.26249227 16.80821061 -4 20.9375 C-9.21040155 23.70552582 -14.4129873 23.70707212 -20.015625 22.17578125 C-28.24823322 19.50117786 -28.24823322 19.50117786 -32 17 C-32 16.01 -32 15.02 -32 14 C-27.33924915 15.68304892 -27.33924915 15.68304892 -25.3359375 17.5546875 C-21.96383104 19.64110789 -18.71327519 19.39832905 -14.875 19.3125 C-13.78251953 19.31733398 -13.78251953 19.31733398 -12.66796875 19.32226562 C-8.36903258 19.40999077 -8.36903258 19.40999077 -5 17 C-4.23236328 16.41798828 -4.23236328 16.41798828 -3.44921875 15.82421875 C-1.2417138 13.04549959 -1.22758164 10.29279994 -0.8125 6.8125 C-0.65394531 5.54019531 -0.49539062 4.26789063 -0.33203125 2.95703125 C-0.16767578 1.49330078 -0.16767578 1.49330078 0 0 Z " fill="#EB829D" transform="translate(237,224)"/>
<path d="M0 0 C0.33 0 0.66 0 1 0 C1.33 5.61 1.66 11.22 2 17 C2.33 17 2.66 17 3 17 C3 20.96 3 24.92 3 29 C13.35667945 28.93322852 13.35667945 28.93322852 22 24 C22.33 23.34 22.66 22.68 23 22 C23.99 22.33 24.98 22.66 26 23 C19.71588455 30.81268408 19.71588455 30.81268408 14.20703125 31.4140625 C12.74265812 31.49357597 11.27774333 31.56357495 9.8125 31.625 C9.06291016 31.66367188 8.31332031 31.70234375 7.54101562 31.7421875 C5.69440801 31.83628216 3.8472381 31.91922319 2 32 C2 31.34 2 30.68 2 30 C1.34 30 0.68 30 0 30 C0 20.1 0 10.2 0 0 Z " fill="#848191" transform="translate(341,216)"/>
<path d="M0 0 C2.40805584 2.11617029 4.29601572 4.1300609 6.0625 6.8125 C6.0625 8.1325 6.0625 9.4525 6.0625 10.8125 C0.68944301 11.25291451 0.68944301 11.25291451 -1.9375 10.8125 C-3.9375 8.3125 -3.9375 8.3125 -4.9375 5.8125 C-3.9475 5.4825 -2.9575 5.1525 -1.9375 4.8125 C0.25 6.25 0.25 6.25 2.0625 7.8125 C-0.73170492 3.89646696 -0.73170492 3.89646696 -4.9375 1.8125 C-11.22258653 1.29732897 -13.75820735 1.95814268 -18.9375 5.8125 C-19.9275 5.8125 -20.9175 5.8125 -21.9375 5.8125 C-20.95276648 2.95677279 -19.9791157 1.84237794 -17.5 0.0625 C-11.73342881 -1.96085831 -5.72719299 -2.31524823 0 0 Z " fill="#817F8C" transform="translate(442.9375,218.1875)"/>
<path d="M0 0 C2.8977017 0.96227617 3.78920135 1.72945003 6 4 C6.875 7.25 6.875 7.25 7 10 C4.69 10 2.38 10 0 10 C1.32 9.34 2.64 8.68 4 8 C3.49743888 5.98567734 3.49743888 5.98567734 2 4 C-2.94712684 1.96294777 -6.8260074 1.60700199 -12 3 C-14.62581536 5.28700048 -14.95141434 6.60321707 -15.375 10.0625 C-15.25028361 12.98290776 -15.25028361 12.98290776 -13.625 14.8125 C-11.99913203 16.06987173 -11.99913203 16.06987173 -10 17 C-10 17.99 -10 18.98 -10 20 C-16.00738007 17.88929889 -16.00738007 17.88929889 -18 15 C-18.9956513 11.15963069 -19.40176584 8.93040511 -17.8125 5.25 C-12.79253349 -0.98168257 -7.62680252 -0.90625557 0 0 Z " fill="#81808D" transform="translate(473,217)"/>
<path d="M0 0 C2.74240846 2.74240846 3.53427337 5.96474636 4.75 9.5625 C5.27829891 11.09777567 5.80695568 12.63292824 6.3359375 14.16796875 C6.60760742 14.96122559 6.87927734 15.75448242 7.15917969 16.57177734 C7.99606686 18.9886414 8.85669984 21.39560608 9.7265625 23.80078125 C10.00274414 24.56769287 10.27892578 25.33460449 10.56347656 26.12475586 C11.09620649 27.60194352 11.631919 29.07805963 12.17089844 30.55297852 C13.22752706 33.5055109 14 35.83817725 14 39 C13.01 38.67 12.02 38.34 11 38 C10.3125 35.9375 10.3125 35.9375 10 34 C9.34 34 8.68 34 8 34 C7.73445312 32.83082031 7.46890625 31.66164063 7.1953125 30.45703125 C6.83875149 28.90880583 6.48196898 27.36063141 6.125 25.8125 C5.95097656 25.04357422 5.77695312 24.27464844 5.59765625 23.48242188 C4.67203409 19.48853367 3.60985301 15.78315457 2 12 C1.59417069 10.65475098 1.21643182 9.30051749 0.875 7.9375 C0.62363281 6.96103516 0.62363281 6.96103516 0.3671875 5.96484375 C0 4 0 4 0 0 Z " fill="#070317" transform="translate(506,89)"/>
<path d="M0 0 C0.83402344 0.10119141 1.66804688 0.20238281 2.52734375 0.30664062 C3.39488281 0.42330078 4.26242187 0.53996094 5.15625 0.66015625 C6.87424113 0.88352062 8.59298158 1.10121451 10.3125 1.3125 C11.45428711 1.46513306 11.45428711 1.46513306 12.61914062 1.62084961 C14.86014207 1.85646218 14.86014207 1.85646218 17.65625 0.72265625 C17.65625 2.04265625 17.65625 3.36265625 17.65625 4.72265625 C9.73625 4.72265625 1.81625 4.72265625 -6.34375 4.72265625 C-6.67375 9.67265625 -7.00375 14.62265625 -7.34375 19.72265625 C-7.67375 19.06265625 -8.00375 18.40265625 -8.34375 17.72265625 C-9.00375 17.39265625 -9.66375 17.06265625 -10.34375 16.72265625 C-9.68375 14.08265625 -9.02375 11.44265625 -8.34375 8.72265625 C-9.33375 8.39265625 -10.32375 8.06265625 -11.34375 7.72265625 C-10.68375 7.39265625 -10.02375 7.06265625 -9.34375 6.72265625 C-9.34375 5.73265625 -9.34375 4.74265625 -9.34375 3.72265625 C-8.68375 3.72265625 -8.02375 3.72265625 -7.34375 3.72265625 C-7.34375 3.06265625 -7.34375 2.40265625 -7.34375 1.72265625 C-4.06287271 -0.46459527 -3.66493444 -0.4844944 0 0 Z " fill="#0B051B" transform="translate(366.34375,90.27734375)"/>
<path d="M0 0 C0.99 0 1.98 0 3 0 C3.66 1.32 4.32 2.64 5 4 C5.66 4 6.32 4 7 4 C7.66 5.32 8.32 6.64 9 8 C17.50922528 8.40735653 24.8390222 7.43092956 33 5 C30.85828458 7.38857981 29.0841719 8.56944475 26.0625 9.625 C25.39347656 9.86476562 24.72445312 10.10453125 24.03515625 10.3515625 C18.1058752 12.24073842 12.70796313 12.93737185 6.75 10.875 C3.47361198 8.64109908 1.88095085 6.47252465 0 3 C0 2.01 0 1.02 0 0 Z " fill="#EA86A0" transform="translate(136,235)"/>
<path d="M0 0 C2.82957829 0.36276645 5.29084291 1.09694764 8 2 C8 2.66 8 3.32 8 4 C8.61875 4.268125 9.2375 4.53625 9.875 4.8125 C12 6 12 6 14 9 C14.66 9.66 15.32 10.32 16 11 C16.2475 12.5159375 16.2475 12.5159375 16.5 14.0625 C16.7475 15.5165625 16.7475 15.5165625 17 17 C17.66 17.33 18.32 17.66 19 18 C19.85486376 22.66289322 20.30042194 26.37627754 19 31 C16.92573759 27.88860639 16.51407995 26.04898871 15.8125 22.4375 C14.04758513 15.19344643 11.10948963 8.52188076 4.54296875 4.4921875 C2.38213798 3.51896293 0.26591449 2.68850916 -2 2 C-1.34 1.34 -0.68 0.68 0 0 Z " fill="#050215" transform="translate(389,95)"/>
<path d="M0 0 C5.14843789 2.35357161 7.95643904 5.81633317 10 11 C11.16474396 17.39739969 10.79128519 22.52980507 7.25 28.0625 C5.15604783 30.90202606 3.04121697 33.17407249 0 35 C-0.99 34.67 -1.98 34.34 -3 34 C1 30 1 30 3.0625 28.25 C5.78185082 25.09204421 7.39790216 22.15801683 8 18 C7.40256175 14.49329721 6.29172342 11.30563767 5 8 C4.67 7.01 4.34 6.02 4 5 C3.34 5 2.68 5 2 5 C2 4.34 2 3.68 2 3 C1.34 3 0.68 3 0 3 C0 2.01 0 1.02 0 0 Z " fill="#827E8D" transform="translate(404,218)"/>
<path d="M0 0 C0.99 0.99 1.98 1.98 3 3 C0.16956274 9.72228849 -3.26048688 13.54212574 -9 18 C-9.33 17.34 -9.66 16.68 -10 16 C-12.05175405 15.34848903 -12.05175405 15.34848903 -14.4375 14.9375 C-18.832021 14.0839895 -18.832021 14.0839895 -21 13 C-20.67 12.01 -20.34 11.02 -20 10 C-18.948125 10.495 -18.948125 10.495 -17.875 11 C-14.73996884 12.09044562 -12.29436818 12.15322643 -9 12 C-8.67 11.34 -8.34 10.68 -8 10 C-5.4375 9.375 -5.4375 9.375 -3 9 C-3 7.68 -3 6.36 -3 5 C-2.34 5 -1.68 5 -1 5 C-0.67 3.35 -0.34 1.7 0 0 Z " fill="#938FA3" transform="translate(409,236)"/>
<path d="M0 0 C2.28062828 3.42094242 2.21925007 4.68187222 2.125 8.6875 C2.10695313 9.68136719 2.08890625 10.67523438 2.0703125 11.69921875 C2.03550781 12.83810547 2.03550781 12.83810547 2 14 C2.99 14.33 3.98 14.66 5 15 C4.34 15 3.68 15 3 15 C4.96318174 18.53372712 7.04070881 21.24479785 10 24 C6.49053006 23.69918829 5.02211769 23.0180963 2.25 20.75 C-0.08063967 17.9014404 -0.4299195 16.5154964 -1 13 C-1.99 12.34 -2.98 11.68 -4 11 C-4.33 11.66 -4.66 12.32 -5 13 C-5 12.01 -5 11.02 -5 10 C-4.34 10 -3.68 10 -3 10 C-2.86722656 9.36191406 -2.73445313 8.72382813 -2.59765625 8.06640625 C-2.42105469 7.24011719 -2.24445313 6.41382813 -2.0625 5.5625 C-1.88847656 4.73878906 -1.71445312 3.91507813 -1.53515625 3.06640625 C-1 1 -1 1 0 0 Z " fill="#938FA3" transform="translate(422,226)"/>
<path d="M0 0 C8.25581018 3.94843095 15.82965735 10.78117535 20 19 C20 19.99 20 20.98 20 22 C19.34 22 18.68 22 18 22 C18 21.34 18 20.68 18 20 C17.38125 19.71125 16.7625 19.4225 16.125 19.125 C14 18 14 18 12 16 C11.5978125 14.515 11.5978125 14.515 11.1875 13 C10.2945785 9.79029933 10.2945785 9.79029933 7.375 8.625 C6.59125 8.41875 5.8075 8.2125 5 8 C5 7.34 5 6.68 5 6 C4.05125 5.71125 3.1025 5.4225 2.125 5.125 C-1 4 -1 4 -3 2 C-2.01 1.34 -1.02 0.68 0 0 Z " fill="#060217" transform="translate(405,80)"/>
<path d="M0 0 C0.99 0.33 1.98 0.66 3 1 C3.49343097 2.97372389 3.98233664 4.94891812 4.4296875 6.93359375 C5.31605836 10.14517035 6.52027876 11.77460914 9 14 C11.93600224 15.27120387 14.9172642 16.15976998 18 17 C18.99 17.33 19.98 17.66 21 18 C20.67 18.66 20.34 19.32 20 20 C13.78194805 19.97180022 9.93906961 18.99892911 5.4375 14.6015625 C1.22741846 9.91098252 0.51911855 6.12559888 0 0 Z " fill="#82808D" transform="translate(379,234)"/>
<path d="M0 0 C2.39453125 0.1328125 2.39453125 0.1328125 5 1 C6.51171875 3.1796875 6.51171875 3.1796875 7.6875 5.875 C9.0000271 8.80787814 10.2087614 11.3131421 12 14 C11.67 14.99 11.34 15.98 11 17 C7.39363961 12.53174216 4.41963409 8.67853635 3 3 C2.34 3 1.68 3 1 3 C0.5978125 4.3303125 0.5978125 4.3303125 0.1875 5.6875 C-0.91710819 8.76877548 -2.22849144 11.26221405 -4 14 C-4.99 13.67 -5.98 13.34 -7 13 C-5.625 10.5 -5.625 10.5 -4 8 C-3.34 8 -2.68 8 -2 8 C-1.855625 6.865625 -1.71125 5.73125 -1.5625 4.5625 C-1 1 -1 1 0 0 Z " fill="#EA839E" transform="translate(185,216)"/>
<path d="M0 0 C0.33 0.66 0.66 1.32 1 2 C0.360625 2.66 -0.27875 3.32 -0.9375 4 C-3.58912502 7.85690912 -3.68667121 10.37840033 -4 15 C-4.99 15.33 -5.98 15.66 -7 16 C-7.98687298 17.6925911 -7.98687298 17.6925911 -8.625 19.75 C-8.87121094 20.46671875 -9.11742188 21.1834375 -9.37109375 21.921875 C-10.0791494 24.26153715 -10.62257545 26.58448288 -11 29 C-11.66 29 -12.32 29 -13 29 C-13.17699643 17.79865443 -7.55279294 8.01053796 0 0 Z " fill="#EC87A2" transform="translate(120,175)"/>
<path d="M0 0 C2 2 2 2 2 4 C1.34 4 0.68 4 0 4 C0.33 4.99 0.66 5.98 1 7 C0.44175241 9.87668402 -0.54473618 12.45740698 -2 15 C-4.6875 16.5 -4.6875 16.5 -7 17 C-7.66 16.34 -8.32 15.68 -9 15 C-8.195625 14.71125 -7.39125 14.4225 -6.5625 14.125 C-3.8673532 13.26737432 -3.8673532 13.26737432 -3 11 C-2.960008 9.00039988 -2.95653201 6.99952758 -3 5 C-7.53140653 4.06619039 -7.53140653 4.06619039 -12 5 C-12.33 4.01 -12.66 3.02 -13 2 C-8.94417058 1.36379146 -5.09781054 1 -1 1 C-0.67 0.67 -0.34 0.34 0 0 Z " fill="#EE849E" transform="translate(181,160)"/>
<path d="M0 0 C0.66 0 1.32 0 2 0 C2.67057887 1.7902061 3.3363469 3.58221489 4 5.375 C4.556875 6.87160156 4.556875 6.87160156 5.125 8.3984375 C6 11 6 11 6 13 C6.99 13 7.98 13 9 13 C9 13.66 9 14.32 9 15 C14.28 15 19.56 15 25 15 C25 15.33 25 15.66 25 16 C19.49751959 17.41999494 13.79317884 17.63481337 8.25 16.375 C5.07345551 14.43377837 2.75829982 12.26345919 1 9 C0.32899604 5.99762462 0.07508659 3.07172426 0 0 Z " fill="#EA8BA2" transform="translate(107,210)"/>
<path d="M0 0 C3.59599486 5.3939923 3.70203235 11.66347426 3 18 C1.92069335 21.46415017 0.56007943 24.72661905 -1 28 C-1.66 28 -2.32 28 -3 28 C-2.125 23.125 -2.125 23.125 -1 22 C-0.73391953 19.41015014 -0.53044165 16.84678984 -0.375 14.25 C-0.3234375 13.53328125 -0.271875 12.8165625 -0.21875 12.078125 C0.02502612 8.17770703 -0.14380819 4.80207209 -1 1 C-0.67 0.67 -0.34 0.34 0 0 Z " fill="#EB7F9B" transform="translate(265,195)"/>
<path d="M0 0 C10.625 13.175 10.625 13.175 15 20 C14.67 20.66 14.34 21.32 14 22 C13.34 22 12.68 22 12 22 C11.67 20.68 11.34 19.36 11 18 C10.34 18 9.68 18 9 18 C8.67 16.68 8.34 15.36 8 14 C7.34 14 6.68 14 6 14 C4.4921875 11.953125 4.4921875 11.953125 2.875 9.25 C2.33617187 8.36828125 1.79734375 7.4865625 1.2421875 6.578125 C0 4 0 4 0 0 Z " fill="#040116" transform="translate(712,114)"/>
<path d="M0 0 C1.00023193 0.00523682 2.00046387 0.01047363 3.03100586 0.01586914 C4.1105957 0.0190918 5.19018555 0.02231445 6.30249023 0.02563477 C8.00695312 0.03820312 8.00695312 0.03820312 9.74584961 0.05102539 C11.45611328 0.05779297 11.45611328 0.05779297 13.20092773 0.06469727 C16.02845312 0.07652792 18.85587601 0.09301129 21.68334961 0.11352539 C17.89356085 3.90331415 12.17015524 3.27109679 7.05834961 3.30102539 C5.39932617 3.32229492 5.39932617 3.32229492 3.70678711 3.34399414 C0.78330691 3.12114487 -0.85123568 2.63486667 -3.31665039 1.11352539 C-2.31665039 0.11352539 -2.31665039 0.11352539 0 0 Z " fill="#150D24" transform="translate(360.316650390625,162.886474609375)"/>
<path d="M0 0 C3.26241547 3.98654975 6.27381935 8.11210551 9.25 12.3125 C9.70890625 12.95767578 10.1678125 13.60285156 10.640625 14.26757812 C11.76172383 15.84412336 12.88104532 17.42193223 14 19 C13.67 19.66 13.34 20.32 13 21 C10.09197539 18.78071806 8.04687238 17.07030857 6 14 C6 12.68 6 11.36 6 10 C3.525 9.01 3.525 9.01 1 8 C1 7.01 1 6.02 1 5 C-0.43750191 3.31201173 -0.43750191 3.31201173 -2 2 C-1.34 1.34 -0.68 0.68 0 0 Z " fill="#050215" transform="translate(698,93)"/>
<path d="M0 0 C3 1 3 1 4.39453125 2.55078125 C6.55199899 4.49827646 7.83208396 4.31164852 10.6875 4.1875 C11.49574219 4.16042969 12.30398438 4.13335937 13.13671875 4.10546875 C14.05904297 4.05326172 14.05904297 4.05326172 15 4 C15.33 2.68 15.66 1.36 16 0 C17.98 0 19.96 0 22 0 C22.33 0.66 22.66 1.32 23 2 C21.9171875 2.4021875 21.9171875 2.4021875 20.8125 2.8125 C17.98234911 3.89068518 17.98234911 3.89068518 15.6875 5.625 C12.0653741 7.47818069 8.9899028 7.88485748 5 7 C2 4.625 2 4.625 0 2 C0 1.34 0 0.68 0 0 Z " fill="#817C8E" transform="translate(425,241)"/>
<path d="M0 0 C2.44692805 2.02745467 3.74295295 3.99943469 5.1875 6.8125 C3.1875 5.8125 1.1875 4.8125 -0.8125 3.8125 C-1.8025 4.1425 -2.7925 4.4725 -3.8125 4.8125 C-4.1425 3.8225 -4.4725 2.8325 -4.8125 1.8125 C-8.18955625 2.34975895 -11.509186 2.92314623 -14.8125 3.8125 C-14.8125 2.8225 -14.8125 1.8325 -14.8125 0.8125 C-10.21157026 -2.25478649 -4.91080803 -2.07345228 0 0 Z " fill="#918EA0" transform="translate(440.8125,220.1875)"/>
<path d="M0 0 C0.33 0.66 0.66 1.32 1 2 C1.99902344 1.98839844 2.99804688 1.97679687 4.02734375 1.96484375 C5.31769531 1.95582031 6.60804688 1.94679687 7.9375 1.9375 C9.22527344 1.92589844 10.51304687 1.91429687 11.83984375 1.90234375 C15 2 15 2 16 3 C18.33297433 3.04092937 20.66705225 3.04241723 23 3 C23 3.66 23 4.32 23 5 C19.75030231 5.11638036 16.5011417 5.18730581 13.25 5.25 C12.32960938 5.28351563 11.40921875 5.31703125 10.4609375 5.3515625 C3.59101089 5.45112665 3.59101089 5.45112665 0.359375 2.984375 C-0.31351562 2.00210938 -0.31351562 2.00210938 -1 1 C-0.67 0.67 -0.34 0.34 0 0 Z " fill="#0C041A" transform="translate(476,137)"/>
<path d="M0 0 C1.32 0.33 2.64 0.66 4 1 C3.67 1.99 3.34 2.98 3 4 C3.66 4.33 4.32 4.66 5 5 C5 5.66 5 6.32 5 7 C6.62339805 8.70884005 8.29319053 10.37446717 10 12 C10.66 12.66 11.32 13.32 12 14 C10.375 14.8125 10.375 14.8125 8 15 C4.45060779 12.51542545 1.29644137 10.27825652 0 6 C-0.125 2.75 -0.125 2.75 0 0 Z " fill="#8A8896" transform="translate(418,237)"/>
<path d="M0 0 C12.66970387 -0.55353075 12.66970387 -0.55353075 18 3 C17.67 3.66 17.34 4.32 17 5 C16.48953125 4.83628906 15.9790625 4.67257813 15.453125 4.50390625 C12.18708172 3.83301519 9.0813253 3.9066544 5.75 3.9375 C3.85507812 3.95103516 3.85507812 3.95103516 1.921875 3.96484375 C0.95765625 3.97644531 -0.0065625 3.98804688 -1 4 C-0.67 2.68 -0.34 1.36 0 0 Z " fill="#898794" transform="translate(344,209)"/>
<path d="M0 0 C0.99 0.33 1.98 0.66 3 1 C0.70817121 7.39299611 0.70817121 7.39299611 -2.1875 9.875 C-5.91900726 11.36760291 -8.9731956 11.80196044 -13 12 C-13.66 11.34 -14.32 10.68 -15 10 C-14.40832031 9.81824219 -13.81664062 9.63648438 -13.20703125 9.44921875 C-6.74930662 7.45502519 -6.74930662 7.45502519 -1 4 C-0.12177688 1.91466367 -0.12177688 1.91466367 0 0 Z " fill="#878492" transform="translate(479,242)"/>
<path d="M0 0 C0.66 0 1.32 0 2 0 C5.28709197 5.61986691 7.1471146 9.41506286 7.1875 16.0625 C7.20167969 17.12597656 7.21585937 18.18945312 7.23046875 19.28515625 C7 22 7 22 5 24 C3.9568729 20.87061869 4.01927691 19.00534407 4.1875 15.75 C4.26816511 10.2061071 3.03295765 7.54943647 0 3 C0 2.01 0 1.02 0 0 Z " fill="#7E7C89" transform="translate(362,213)"/>
<path d="M0 0 C1.19109375 0.40798828 1.19109375 0.40798828 2.40625 0.82421875 C3.2003125 1.08847656 3.994375 1.35273438 4.8125 1.625 C6.90625 2.51171875 6.90625 2.51171875 8.90625 4.51171875 C7.91625 5.50171875 6.92625 6.49171875 5.90625 7.51171875 C0.15625 5.63671875 0.15625 5.63671875 -2.09375 4.51171875 C-2.09375 3.85171875 -2.09375 3.19171875 -2.09375 2.51171875 C-2.75375 2.51171875 -3.41375 2.51171875 -4.09375 2.51171875 C-4.09375 1.85171875 -4.09375 1.19171875 -4.09375 0.51171875 C-2.09375 -0.48828125 -2.09375 -0.48828125 0 0 Z " fill="#8E8B9C" transform="translate(469.09375,218.48828125)"/>
<path d="M0 0 C0.33 0 0.66 0 1 0 C1 6.6 1 13.2 1 20 C0.01 20 -0.98 20 -2 20 C-2 15.66666667 -2 11.33333333 -2 7 C-2.33 6.01 -2.66 5.02 -3 4 C-1.625 1.8125 -1.625 1.8125 0 0 Z " fill="#09021E" transform="translate(755,150)"/>
<path d="M0 0 C-0.9075 0.598125 -1.815 1.19625 -2.75 1.8125 C-7.20927111 5.44754564 -8.40975297 10.65864086 -10 16 C-11.44061049 13.38784246 -12.00398174 12.18316021 -11.9375 9.125 C-10.70854871 5.02849569 -8.94585756 3.08955793 -6 0 C-3.50907189 -1.24546405 -2.58919267 -0.7767578 0 0 Z " fill="#ED849F" transform="translate(95,129)"/>
<path d="M0 0 C2.31 0 4.62 0 7 0 C7.66 1.65 8.32 3.3 9 5 C8.01 5.495 8.01 5.495 7 6 C6.34 5.67 5.68 5.34 5 5 C5 4.34 5 3.68 5 3 C4.34 3 3.68 3 3 3 C4.32 5.64 5.64 8.28 7 11 C3.23085596 9.11542798 1.99525994 8.4917049 0 5 C-0.1875 2.25 -0.1875 2.25 0 0 Z " fill="#888594" transform="translate(454,241)"/>
<path d="M0 0 C-6.78682495 4.33201592 -12.96461531 6.90475488 -21.0625 5.125 C-22.38030224 4.76908076 -23.69520864 4.40099971 -25 4 C-25 3.67 -25 3.34 -25 3 C-21.82292075 2.3800821 -18.99439163 2.00021571 -15.75 2.125 C-11.50108853 1.98336962 -8.13052255 0.93471298 -4.13671875 -0.44140625 C-2 -1 -2 -1 0 0 Z " fill="#EC859E" transform="translate(169,241)"/>
<path d="M0 0 C4.875 3.75 4.875 3.75 6 6 C6.2430836 10.94269981 6.25495121 14.49009758 4 19 C3.01 19 2.02 19 1 19 C1.17917969 18.38253906 1.35835938 17.76507813 1.54296875 17.12890625 C3.2059728 10.50712651 2.79219508 6.21488582 0 0 Z " fill="#EF86A1" transform="translate(274,96)"/>
<path d="M0 0 C3.62687863 0.88110611 5.58633073 1.51685955 8.046875 4.390625 C8.60890625 5.33421875 9.1709375 6.2778125 9.75 7.25 C10.32234375 8.18328125 10.8946875 9.1165625 11.484375 10.078125 C13.01150205 13.02217405 14.148925 15.79488775 15 19 C14.67 19.66 14.34 20.32 14 21 C11.24333774 19.62166887 11.12490276 18.16690743 10.0625 15.3125 C9.711875 14.41015625 9.36125 13.5078125 9 12.578125 C8.505 11.30195312 8.505 11.30195312 8 10 C6.02051169 5.266441 4.57205276 3.34781088 0 1 C0 0.67 0 0.34 0 0 Z " fill="#ED839D" transform="translate(212,50)"/>
<path d="M0 0 C1.17369141 0.27263672 1.17369141 0.27263672 2.37109375 0.55078125 C3.15613281 0.71964844 3.94117188 0.88851562 4.75 1.0625 C6.80859375 1.86328125 6.80859375 1.86328125 8.80859375 4.86328125 C8.93359375 7.55078125 8.93359375 7.55078125 8.80859375 9.86328125 C8.14859375 9.86328125 7.48859375 9.86328125 6.80859375 9.86328125 C6.14859375 7.88328125 5.48859375 5.90328125 4.80859375 3.86328125 C1.4304195 3.01873769 -0.86605868 2.75483206 -4.19140625 3.86328125 C-4.52140625 5.84328125 -4.85140625 7.82328125 -5.19140625 9.86328125 C-5.85140625 9.86328125 -6.51140625 9.86328125 -7.19140625 9.86328125 C-7.19140625 8.87328125 -7.19140625 7.88328125 -7.19140625 6.86328125 C-7.85140625 6.53328125 -8.51140625 6.20328125 -9.19140625 5.86328125 C-7.87140625 5.53328125 -6.55140625 5.20328125 -5.19140625 4.86328125 C-5.19140625 3.87328125 -5.19140625 2.88328125 -5.19140625 1.86328125 C-2.19140625 -0.13671875 -2.19140625 -0.13671875 0 0 Z " fill="#EA849D" transform="translate(186.19140625,120.13671875)"/>
<path d="M0 0 C7.60344828 0.60344828 7.60344828 0.60344828 10 3 C11.01241685 4.32392972 12.01439389 5.65599167 13 7 C10 7 10 7 8.125 5.5625 C4.08901983 2.59486753 -0.45344603 2.8841038 -5.3125 2.9375 C-6.91544922 2.95103516 -6.91544922 2.95103516 -8.55078125 2.96484375 C-9.35902344 2.97644531 -10.16726563 2.98804688 -11 3 C-11 2.67 -11 2.34 -11 2 C-10.28972656 1.93941406 -9.57945312 1.87882813 -8.84765625 1.81640625 C-7.46900391 1.69072266 -7.46900391 1.69072266 -6.0625 1.5625 C-5.14597656 1.48128906 -4.22945313 1.40007812 -3.28515625 1.31640625 C-1.03840268 1.23955024 -1.03840268 1.23955024 0 0 Z " fill="#898596" transform="translate(353,204)"/>
<path d="M0 0 C-2.89234315 0.82638376 -4.88742431 1 -8 1 C-8 0.34 -8 -0.32 -8 -1 C-9.65 -0.67 -11.3 -0.34 -13 0 C-13 -0.33 -13 -0.66 -13 -1 C-18.4389165 -1.21755666 -22.87080814 -1.10428384 -28 1 C-28.66 0.34 -29.32 -0.32 -30 -1 C-20.06261692 -4.69763091 -9.77794395 -3.70811418 0 0 Z " fill="#E08FA7" transform="translate(269,92)"/>
<path d="M0 0 C2.36633345 3.54950018 2.41325942 5.59099342 2.6875 9.8125 C2.77386719 11.01519531 2.86023438 12.21789062 2.94921875 13.45703125 C2.99704586 16.79389214 2.66438836 19.73800304 2 23 C1.67 22.01 1.34 21.02 1 20 C0.01 19.67 -0.98 19.34 -2 19 C-1.67257813 18.15179688 -1.34515625 17.30359375 -1.0078125 16.4296875 C0.05932828 12.79809989 0.20197218 9.89663699 0.125 6.125 C0.10695312 4.97257812 0.08890625 3.82015625 0.0703125 2.6328125 C0.04710937 1.76398438 0.02390625 0.89515625 0 0 Z " fill="#EE8EA7" transform="translate(226,69)"/>
<path d="M0 0 C2.72226766 2.72226766 3.78896139 5.36688418 5 9 C4.34 9 3.68 9 3 9 C2.38125 7.7934375 2.38125 7.7934375 1.75 6.5625 C0.20275764 3.71470422 0.20275764 3.71470422 -3 3.125 C-6.05183614 2.8198077 -6.05183614 2.8198077 -9 4 C-9 3.01 -9 2.02 -9 1 C-3.375 -1.125 -3.375 -1.125 0 0 Z " fill="#EE839C" transform="translate(204,161)"/>
<path d="M0 0 C0.66 0 1.32 0 2 0 C2 0.66 2 1.32 2 2 C4.31 2 6.62 2 9 2 C8.67 2.99 8.34 3.98 8 5 C5.9375 5.6875 5.9375 5.6875 4 6 C6.97 6.495 6.97 6.495 10 7 C7 9 7 9 4 9 C0 3.85714286 0 3.85714286 0 0 Z " fill="#8B889B" transform="translate(457,244)"/>
<path d="M0 0 C1.32 0 2.64 0 4 0 C4.71484375 1.703125 4.71484375 1.703125 5 4 C3.56640625 6.359375 3.56640625 6.359375 1.5625 8.75 C0.57443359 9.94882813 0.57443359 9.94882813 -0.43359375 11.171875 C-0.95050781 11.77515625 -1.46742188 12.3784375 -2 13 C-2.66 12.34 -3.32 11.68 -4 11 C-3.65066406 10.44570312 -3.30132812 9.89140625 -2.94140625 9.3203125 C-2.48636719 8.59585938 -2.03132813 7.87140625 -1.5625 7.125 C-1.11003906 6.40570313 -0.65757812 5.68640625 -0.19140625 4.9453125 C1.02461501 3.0222453 1.02461501 3.0222453 2 1 C1.34 0.67 0.68 0.34 0 0 Z " fill="#F084A0" transform="translate(284,145)"/>
<path d="M0 0 C0.33 0.66 0.66 1.32 1 2 C2.32 1.67 3.64 1.34 5 1 C2.54273755 3.88749022 0.10734898 4.93213286 -3.4375 6.1875 C-4.38496094 6.53167969 -5.33242188 6.87585938 -6.30859375 7.23046875 C-9 8 -9 8 -13 8 C-13 7.34 -13 6.68 -13 6 C-11.865625 5.87625 -10.73125 5.7525 -9.5625 5.625 C-7.7990625 5.315625 -7.7990625 5.315625 -6 5 C-5.67 4.34 -5.34 3.68 -5 3 C-3.68 3 -2.36 3 -1 3 C-0.67 2.01 -0.34 1.02 0 0 Z " fill="#E88AA3" transform="translate(270,161)"/>
<path d="M0 0 C0.66 0.99 1.32 1.98 2 3 C2.66 2.01 3.32 1.02 4 0 C4 3.96 4 7.92 4 12 C1.5 9.75 1.5 9.75 -1 7 C-1 3 -1 3 0 0 Z " fill="#080118" transform="translate(355,111)"/>
<path d="M0 0 C0.66 0 1.32 0 2 0 C2.33 1.32 2.66 2.64 3 4 C3.763125 3.484375 4.52625 2.96875 5.3125 2.4375 C6.199375 1.963125 7.08625 1.48875 8 1 C8.99 1.33 9.98 1.66 11 2 C7.375 5 7.375 5 4 5 C3.67 5.99 3.34 6.98 3 8 C2.01 7.67 1.02 7.34 0 7 C-1.17755913 4.05610218 -1.03348696 3.10046087 0 0 Z " fill="#ED88A2" transform="translate(225,92)"/>
<path d="M0 0 C11.70615034 2.52164009 11.70615034 2.52164009 16 8 C14.68 8 13.36 8 12 8 C12 7.34 12 6.68 12 6 C11.30132812 5.79503906 10.60265625 5.59007812 9.8828125 5.37890625 C8.97273438 5.10949219 8.06265625 4.84007812 7.125 4.5625 C6.22007812 4.29566406 5.31515625 4.02882812 4.3828125 3.75390625 C2 3 2 3 0 2 C0 1.34 0 0.68 0 0 Z " fill="#7E7B91" transform="translate(465,230)"/>
<path d="M0 0 C0 0.66 0 1.32 0 2 C-0.73605469 2.04898438 -1.47210938 2.09796875 -2.23046875 2.1484375 C-3.69419922 2.26058594 -3.69419922 2.26058594 -5.1875 2.375 C-6.15042969 2.44460937 -7.11335938 2.51421875 -8.10546875 2.5859375 C-11.01508938 3.00215853 -13.32890774 3.79874096 -16 5 C-16.33 4.34 -16.66 3.68 -17 3 C-11.42531458 -0.61601216 -6.39432346 -0.30720059 0 0 Z " fill="#817F8B" transform="translate(402,217)"/>
<path d="M0 0 C-2.75924185 1.80411967 -3.88972103 2.0127245 -7.25 1.625 C-8.1575 1.41875 -9.065 1.2125 -10 1 C-9.67 1.99 -9.34 2.98 -9 4 C-12.3 4.33 -15.6 4.66 -19 5 C-12.31426322 -0.01430259 -8.05986094 -1.55541176 0 0 Z " fill="#ED8AA6" transform="translate(119,91)"/>
<path d="M0 0 C3.39729872 0.38605667 5.78437731 1.65726873 8.75 3.3125 C8.42 4.9625 8.09 6.6125 7.75 8.3125 C7.069375 7.69375 6.38875 7.075 5.6875 6.4375 C2.29118766 3.9805932 -0.21018821 3.26304395 -4.25 2.3125 C-2.25 0.3125 -2.25 0.3125 0 0 Z " fill="#F584A3" transform="translate(165.25,134.6875)"/>
<path d="M0 0 C0.66 0.33 1.32 0.66 2 1 C1.38461538 6.53846154 1.38461538 6.53846154 -0.5625 8.875 C-1.2740625 9.431875 -1.2740625 9.431875 -2 10 C-2.12375 9.360625 -2.2475 8.72125 -2.375 8.0625 C-2.684375 7.0415625 -2.684375 7.0415625 -3 6 C-3.66 5.67 -4.32 5.34 -5 5 C-4.175 4.54625 -3.35 4.0925 -2.5 3.625 C-1.2625 2.820625 -1.2625 2.820625 0 2 C0 1.34 0 0.68 0 0 Z " fill="#938FA1" transform="translate(447,240)"/>
<path d="M0 0 C0.99 0.495 0.99 0.495 2 1 C2 1.99 2 2.98 2 4 C2.66 4 3.32 4 4 4 C4 4.66 4 5.32 4 6 C4.66 6 5.32 6 6 6 C6.33 7.65 6.66 9.3 7 11 C5.35 11.33 3.7 11.66 2 12 C2.20625 11.38125 2.4125 10.7625 2.625 10.125 C2.74875 9.42375 2.8725 8.7225 3 8 C2.34 7.34 1.68 6.68 1 6 C0.60235737 4.01178687 0.26224651 2.01055661 0 0 Z " fill="#9693A4" transform="translate(402,217)"/>
<path d="M0 0 C1.56633048 2.48770135 2.04100928 3.65552204 1.6875 6.625 C1 9 1 9 0 11 C-0.66 11 -1.32 11 -2 11 C-2.33 11.66 -2.66 12.32 -3 13 C-3.66 12.34 -4.32 11.68 -5 11 C-4.54625 10.484375 -4.0925 9.96875 -3.625 9.4375 C-1.61799617 6.42699426 -0.87268191 3.49072763 0 0 Z " fill="#878593" transform="translate(406,234)"/>
<path d="M0 0 C0.33 0.99 0.66 1.98 1 3 C0.67 3.66 0.34 4.32 0 5 C-0.22622081 6.70363822 -0.40888473 8.41328701 -0.5625 10.125 C-0.68818359 11.49011719 -0.68818359 11.49011719 -0.81640625 12.8828125 C-0.87699219 13.58148438 -0.93757813 14.28015625 -1 15 C-1.66 15 -2.32 15 -3 15 C-3.55353075 4.44191344 -3.55353075 4.44191344 0 0 Z " fill="#7B7989" transform="translate(427,225)"/>
<path d="M0 0 C2 2 2 2 2.265625 3.98828125 C2.23575234 8.43184013 2.08605145 11.95827531 0 16 C-0.66 15.34 -1.32 14.68 -2 14 C-1.7578125 10.7421875 -1.7578125 10.7421875 -1.125 6.875 C-0.92132813 5.59367188 -0.71765625 4.31234375 -0.5078125 2.9921875 C-0.34023437 2.00476563 -0.17265625 1.01734375 0 0 Z " fill="#E37D95" transform="translate(237,224)"/>
<path d="M0 0 C2.5654594 2.5654594 2.54046087 4.47686668 3 8 C1.35 8 -0.3 8 -2 8 C-2.93423645 4.98968256 -3.04449911 4.13349732 -2 1 C-1.34 0.67 -0.68 0.34 0 0 Z " fill="#090617" transform="translate(537,177)"/>
<path d="M0 0 C0.66 0 1.32 0 2 0 C3.19287411 3.87684087 4 6.91621923 4 11 C1.525 10.01 1.525 10.01 -1 9 C-0.67 6.03 -0.34 3.06 0 0 Z " fill="#F07F9A" transform="translate(193,165)"/>
<path d="M0 0 C2.35953094 2.35953094 2.49141413 3.77895617 3 7 C1.35 7.33 -0.3 7.66 -2 8 C-3 3.25 -3 3.25 -3 1 C-2.01 0.67 -1.02 0.34 0 0 Z " fill="#090219" transform="translate(358,155)"/>
<path d="M0 0 C0.33 0 0.66 0 1 0 C1.2493357 1.60115576 1.47378648 3.20620159 1.6875 4.8125 C1.81511719 5.70582031 1.94273437 6.59914062 2.07421875 7.51953125 C2 10 2 10 0.51953125 11.82421875 C0.01808594 12.21222656 -0.48335937 12.60023438 -1 13 C-1.99 12.34 -2.98 11.68 -4 11 C-3.505 10.62875 -3.01 10.2575 -2.5 9.875 C-0.40153589 7.25191986 -0.86059607 5.2759923 -1 2 C-0.67 1.34 -0.34 0.68 0 0 Z " fill="#E889A0" transform="translate(214,137)"/>
<path d="M0 0 C3.78520613 0.54074373 5.59177555 2.07572746 8 5 C8 5.99 8 6.98 8 8 C4.63820226 6.55922954 2.40843732 4.75249979 0 2 C0 1.34 0 0.68 0 0 Z " fill="#F082A0" transform="translate(175,50)"/>
<path d="M0 0 C0.33 0.66 0.66 1.32 1 2 C2.88764903 2.68472665 2.88764903 2.68472665 5.0625 3.125 C5.79597656 3.29257813 6.52945313 3.46015625 7.28515625 3.6328125 C7.85105469 3.75398437 8.41695312 3.87515625 9 4 C8.67 4.66 8.34 5.32 8 6 C5.8727242 5.3827904 3.74823143 4.75598201 1.625 4.125 C-0.15003906 3.60292969 -0.15003906 3.60292969 -1.9609375 3.0703125 C-5 2 -5 2 -7 0 C-3.98968256 -0.93423645 -3.13349732 -1.04449911 0 0 Z " fill="#E896A9" transform="translate(109,164)"/>
<path d="M0 0 C1.49356111 2.37212647 2.04005633 3.60945078 1.75 6.4375 C0.98785409 9.04149851 0.06844502 11.50696162 -1 14 C-2.125 12.25 -2.125 12.25 -3 10 C-2.125 8.0625 -2.125 8.0625 -1 6 C-0.96125079 4.33378384 -0.9549714 2.66605828 -1 1 C-0.67 0.67 -0.34 0.34 0 0 Z " fill="#0A0220" transform="translate(428,138)"/>
<path d="M0 0 C3.83225427 -0.08912219 7.26562152 0.12132271 11 1 C10.67 1.99 10.34 2.98 10 4 C3.47692308 3.38461538 3.47692308 3.38461538 1.0625 1.4375 C0.711875 0.963125 0.36125 0.48875 0 0 Z " fill="#878493" transform="translate(389,250)"/>
<path d="M0 0 C3.87132028 0.57352893 6.08172796 2.48704352 9 5 C7.3125 5.75 7.3125 5.75 5 6 C2.25 4.1875 2.25 4.1875 0 2 C0 1.34 0 0.68 0 0 Z " fill="#848290" transform="translate(421,246)"/>
<path d="M0 0 C0.99 0.33 1.98 0.66 3 1 C3 6.28 3 11.56 3 17 C2.67 17 2.34 17 2 17 C1.66408104 14.72954771 1.33134935 12.45862367 1 10.1875 C0.7215625 8.29064453 0.7215625 8.29064453 0.4375 6.35546875 C0 3 0 3 0 0 Z " fill="#858292" transform="translate(371,216)"/>
<path d="M0 0 C2.02350324 3.03525486 2.32124018 4.19426202 2.625 7.6875 C2.69976563 8.49574219 2.77453125 9.30398437 2.8515625 10.13671875 C2.90054688 10.75160156 2.94953125 11.36648437 3 12 C2.34 12 1.68 12 1 12 C-1.27678571 3.96428571 -1.27678571 3.96428571 0 0 Z " fill="#0B051D" transform="translate(520,128)"/>
<path d="M0 0 C0.99 0.99 1.98 1.98 3 3 C2.9375 5.0625 2.9375 5.0625 2 7 C0.02 7.99 0.02 7.99 -2 9 C-1.34 6.03 -0.68 3.06 0 0 Z " fill="#080318" transform="translate(459,113)"/>
<path d="M0 0 C0.66 0 1.32 0 2 0 C3.66666667 3.33333333 5.33333333 6.66666667 7 10 C3.64501065 8.61172854 1.84949545 7.14414226 0 4 C0 2.68 0 1.36 0 0 Z " fill="#817E8C" transform="translate(454,242)"/>
<path d="M0 0 C0.66 0 1.32 0 2 0 C2 0.66 2 1.32 2 2 C4.31 2.66 6.62 3.32 9 4 C9 4.66 9 5.32 9 6 C4.2482602 5.56802365 2.07999946 4.67230705 -1 1 C-0.67 0.67 -0.34 0.34 0 0 Z " fill="#F385A3" transform="translate(96,158)"/>
<path d="M0 0 C2.97 0.99 5.94 1.98 9 3 C9 3.99 9 4.98 9 6 C5.08788267 4.84414715 2.1254959 3.64465038 -1 1 C-0.67 0.67 -0.34 0.34 0 0 Z " fill="#F2809D" transform="translate(274,124)"/>
<path d="M0 0 C-1.17578125 1.55078125 -1.17578125 1.55078125 -3 3 C-5.48046875 2.85546875 -5.48046875 2.85546875 -8.1875 2.1875 C-9.53908203 1.86845703 -9.53908203 1.86845703 -10.91796875 1.54296875 C-11.60503906 1.36378906 -12.29210937 1.18460938 -13 1 C-13 0.67 -13 0.34 -13 0 C-8.38926889 -1.29676812 -4.66159911 -0.71109139 0 0 Z " fill="#F77898" transform="translate(157,244)"/>
<path d="M0 0 C0.66 0.66 1.32 1.32 2 2 C1.01 4.31 0.02 6.62 -1 9 C-1.66 9 -2.32 9 -3 9 C-2.4140625 2.84765625 -2.4140625 2.84765625 -2 1 C-1.34 0.67 -0.68 0.34 0 0 Z " fill="#868491" transform="translate(420,227)"/>
<path d="M0 0 C1.485 0.99 1.485 0.99 3 2 C4.9896995 2.39013716 6.99019869 2.73202649 9 3 C9 3.99 9 4.98 9 6 C7.51793505 5.745504 6.03931385 5.47088238 4.5625 5.1875 C3.73878906 5.03667969 2.91507813 4.88585937 2.06640625 4.73046875 C1.38449219 4.48941406 0.70257813 4.24835938 0 4 C-0.33 3.01 -0.66 2.02 -1 1 C-0.67 0.67 -0.34 0.34 0 0 Z " fill="#EA8399" transform="translate(181,130)"/>
<path d="M0 0 C3.16717283 1.58358642 4.73268318 2.45263699 6.3125 5.6875 C6.539375 6.450625 6.76625 7.21375 7 8 C6.01 7.67 5.02 7.34 4 7 C4 6.34 4 5.68 4 5 C3.34 5 2.68 5 2 5 C2 4.34 2 3.68 2 3 C1.34 3 0.68 3 0 3 C0 2.01 0 1.02 0 0 Z " fill="#868492" transform="translate(404,218)"/>
<path d="M0 0 C2.4990443 2.4990443 3.80514603 3.81372275 5 7 C4.67 7.99 4.34 8.98 4 10 C3.34 10 2.68 10 2 10 C1.34 6.7 0.68 3.4 0 0 Z " fill="#EC87A1" transform="translate(260,185)"/>
<path d="M0 0 C0.99 0.66 1.98 1.32 3 2 C2.34 2 1.68 2 1 2 C1.33 2.99 1.66 3.98 2 5 C1.01 6.485 1.01 6.485 0 8 C-0.66 8 -1.32 8 -2 8 C-2.625 6.1875 -2.625 6.1875 -3 4 C-1 1 -1 1 0 0 Z " fill="#04000F" transform="translate(456,122)"/>
<path d="M0 0 C0.66 0.66 1.32 1.32 2 2 C-4.4 3.23076923 -4.4 3.23076923 -7.4375 2.0625 C-7.953125 1.711875 -8.46875 1.36125 -9 1 C-5.75778445 -0.08073852 -3.39597063 -0.21676408 0 0 Z " fill="#857E93" transform="translate(437,251)"/>
<path d="M0 0 C0.99 0.33 1.98 0.66 3 1 C3.6875 3.0625 3.6875 3.0625 4 5 C1.625 5.625 1.625 5.625 -1 6 C-1.66 5.34 -2.32 4.68 -3 4 C-2.34 4 -1.68 4 -1 4 C-0.67 2.68 -0.34 1.36 0 0 Z " fill="#90819D" transform="translate(478,237)"/>
<path d="M0 0 C1.9375 0.6875 1.9375 0.6875 4 2 C4.75 4.625 4.75 4.625 5 7 C2.37812506 5.95125002 1.20628639 5.35068687 -0.25 2.875 C-0.4975 2.25625 -0.745 1.6375 -1 1 C-0.67 0.67 -0.34 0.34 0 0 Z " fill="#888696" transform="translate(444,221)"/>
<path d="M0 0 C0.66 0 1.32 0 2 0 C3.32 2.31 4.64 4.62 6 7 C5.01 7.33 4.02 7.66 3 8 C0 3.375 0 3.375 0 0 Z " fill="#848291" transform="translate(362,213)"/>
<path d="M0 0 C-0.8353125 0.37125 -0.8353125 0.37125 -1.6875 0.75 C-4.39971127 2.21606015 -6.63587365 4.02989471 -9 6 C-9.33 4.68 -9.66 3.36 -10 2 C-6.3558226 -0.4294516 -4.28758728 -0.16179575 0 0 Z " fill="#E58BA1" transform="translate(210,137)"/>
<path d="M0 0 C0.99 0.33 1.98 0.66 3 1 C2.34 2.65 1.68 4.3 1 6 C1.66 6 2.32 6 3 6 C2.67 6.99 2.34 7.98 2 9 C1.01 9 0.02 9 -1 9 C-0.67 6.03 -0.34 3.06 0 0 Z " fill="#0E0720" transform="translate(733,136)"/>
<path d="M0 0 C5.445 1.485 5.445 1.485 11 3 C7 4 7 4 3 4 C3 3.34 3 2.68 3 2 C1.35 2.33 -0.3 2.66 -2 3 C-1.34 2.67 -0.68 2.34 0 2 C0 1.34 0 0.68 0 0 Z " fill="#EE8DA5" transform="translate(258,89)"/>
<path d="M0 0 C0.66 0 1.32 0 2 0 C2.66 2.64 3.32 5.28 4 8 C3.01 8 2.02 8 1 8 C-0.35439668 5.29120665 -0.06501451 2.99066732 0 0 Z " fill="#F182A0" transform="translate(107,210)"/>
<path d="M0 0 C3.25543229 0.34879632 4.01873107 1.02133261 6.25 3.5625 C6.8275 4.366875 7.405 5.17125 8 6 C6.35 6 4.7 6 3 6 C2 4 1 2 0 0 Z " fill="#EE809C" transform="translate(248,172)"/>
<path d="M0 0 C2.7972908 2.06756277 3.02692273 3.14440371 3.6875 6.6875 C3.790625 7.780625 3.89375 8.87375 4 10 C0.92436109 8.46218054 0.29677426 6.08755777 -1 3 C-0.67 2.01 -0.34 1.02 0 0 Z " fill="#09021C" transform="translate(426,110)"/>
<path d="M0 0 C2 2 2 2 3 4 C3.99 4.33 4.98 4.66 6 5 C5.67 5.66 5.34 6.32 5 7 C3.35 6.67 1.7 6.34 0 6 C0 4.02 0 2.04 0 0 Z " fill="#090320" transform="translate(515,176)"/>
<path d="M0 0 C0.33 0 0.66 0 1 0 C1 3.96 1 7.92 1 12 C0.67 11.34 0.34 10.68 0 10 C-0.66 9.67 -1.32 9.34 -2 9 C-1.34 6.03 -0.68 3.06 0 0 Z " fill="#040112" transform="translate(358,98)"/>
<path d="M0 0 C2.29013653 3.4352048 2.17842973 4.985331 2 9 C0.68 8.34 -0.64 7.68 -2 7 C-1.34 7 -0.68 7 0 7 C-0.185625 6.030625 -0.37125 5.06125 -0.5625 4.0625 C-0.706875 3.051875 -0.85125 2.04125 -1 1 C-0.67 0.67 -0.34 0.34 0 0 Z " fill="#F47F9E" transform="translate(149,91)"/>
<path d="M0 0 C0.99 0.33 1.98 0.66 3 1 C3 2.98 3 4.96 3 7 C2.01 7.495 2.01 7.495 1 8 C0.67 5.36 0.34 2.72 0 0 Z " fill="#787590" transform="translate(379,234)"/>
<path d="M0 0 C3.83736322 0.95934081 4.59660228 1.23609263 7 4 C6.67 4.99 6.34 5.98 6 7 C4.02 4.69 2.04 2.38 0 0 Z " fill="#E98BA4" transform="translate(88,152)"/>
<path d="M0 0 C-0.66 1.32 -1.32 2.64 -2 4 C-4.31 3.34 -6.62 2.68 -9 2 C-5.5647952 -0.29013653 -4.014669 -0.17842973 0 0 Z " fill="#F994AF" transform="translate(175,147)"/>
<path d="M0 0 C0 0.33 0 0.66 0 1 C-6.0546875 1.9765625 -6.0546875 1.9765625 -8 2 C-8.66 1.34 -9.32 0.68 -10 0 C-6.30581799 -1.231394 -3.7943739 -0.64432764 0 0 Z " fill="#7E7C8E" transform="translate(474,252)"/>
<path d="M0 0 C0.33 0 0.66 0 1 0 C1 1.98 1 3.96 1 6 C0.67 6 0.34 6 0 6 C0 4.02 0 2.04 0 0 Z " fill="#000000" transform="translate(757,116)"/>
<path d="M0 0 C0.33 0 0.66 0 1 0 C1 1.98 1 3.96 1 6 C0.67 6 0.34 6 0 6 C0 4.02 0 2.04 0 0 Z " fill="#000000" transform="translate(757,81)"/>
<path d="M0 0 C0.33 0 0.66 0 1 0 C1 1.65 1 3.3 1 5 C0.67 5 0.34 5 0 5 C0 3.35 0 1.7 0 0 Z " fill="#A15DA1" transform="translate(415,233)"/>
<path d="M0 0 C1.65 0 3.3 0 5 0 C5 0.33 5 0.66 5 1 C3.35 1 1.7 1 0 1 C0 0.67 0 0.34 0 0 Z " fill="#000000" transform="translate(381,185)"/>
<path d="M0 0 C0.33 0 0.66 0 1 0 C1 1.65 1 3.3 1 5 C0.67 5 0.34 5 0 5 C0 3.35 0 1.7 0 0 Z " fill="#000000" transform="translate(688,179)"/>
<path d="M0 0 C4 1 4 1 4 1 Z " fill="#000000" transform="translate(736,72)"/>
<path d="" fill="#000000" transform="translate(0,0)"/>
<path d="" fill="#000000" transform="translate(0,0)"/>
<path d="" fill="#000000" transform="translate(0,0)"/>
<path d="M0 0 C3 1 3 1 3 1 Z " fill="#000000" transform="translate(479,72)"/>
<path d="" fill="#000000" transform="translate(0,0)"/>
<path d="" fill="#000000" transform="translate(0,0)"/>
<path d="" fill="#000000" transform="translate(0,0)"/>
<path d="" fill="#000000" transform="translate(0,0)"/>
<path d="" fill="#000000" transform="translate(0,0)"/>
<path d="" fill="#000000" transform="translate(0,0)"/>
<path d="" fill="#000000" transform="translate(0,0)"/>
<path d="" fill="#000000" transform="translate(0,0)"/>
<path d="" fill="#000000" transform="translate(0,0)"/>
<path d="" fill="#000000" transform="translate(0,0)"/>
<path d="M0 0 C2 1 2 1 2 1 Z " fill="#000000" transform="translate(753,72)"/>
<path d="M0 0 C2 1 2 1 2 1 Z " fill="#000000" transform="translate(669,72)"/>
<path d="M0 0 C2 1 2 1 2 1 Z " fill="#000000" transform="translate(498,72)"/>
<path d="M0 0 C2 1 2 1 2 1 Z " fill="#000000" transform="translate(475,72)"/>
<path d="M0 0 C2 1 2 1 2 1 Z " fill="#000000" transform="translate(338,72)"/>
<path d="M0 0 C2 1 2 1 2 1 Z " fill="#000000" transform="translate(335,72)"/>
<path d="" fill="#FFFFFF" transform="translate(0,0)"/>
<path d="" fill="#000000" transform="translate(0,0)"/>
<path d="" fill="#000000" transform="translate(0,0)"/>
<path d="" fill="#000000" transform="translate(0,0)"/>
<path d="" fill="#000000" transform="translate(0,0)"/>
<path d="" fill="#000000" transform="translate(0,0)"/>
<path d="" fill="#000000" transform="translate(0,0)"/>
<path d="" fill="#000000" transform="translate(0,0)"/>
<path d="" fill="#000000" transform="translate(0,0)"/>
<path d="" fill="#000000" transform="translate(0,0)"/>
<path d="" fill="#000000" transform="translate(0,0)"/>
<path d="" fill="#000000" transform="translate(0,0)"/>
<path d="" fill="#000000" transform="translate(0,0)"/>
<path d="" fill="#000000" transform="translate(0,0)"/>
<path d="" fill="#000000" transform="translate(0,0)"/>
<path d="" fill="#000000" transform="translate(0,0)"/>
<path d="" fill="#000000" transform="translate(0,0)"/>
</svg>
