<?xml version="1.0" standalone="no"?>
<!DOCTYPE svg PUBLIC "-//W3C//DTD SVG 20010904//EN"
 "http://www.w3.org/TR/2001/REC-SVG-20010904/DTD/svg10.dtd">
<svg version="1.0" xmlns="http://www.w3.org/2000/svg"
 width="822.000000pt" height="303.000000pt" viewBox="0 0 822.000000 303.000000"
 preserveAspectRatio="xMidYMid meet">

<g transform="translate(0.000000,303.000000) scale(0.100000,-0.100000)"
fill="#000000" stroke="none">
<path d="M5882 2299 c-169 -21 -307 -114 -387 -261 -61 -111 -83 -316 -50
-457 18 -75 72 -182 121 -239 44 -52 133 -110 214 -141 90 -33 234 -35 335 -4
191 59 325 213 361 414 36 199 -18 411 -139 537 -111 115 -282 172 -455 151z
m196 -219 c155 -67 228 -294 161 -498 -24 -73 -80 -141 -144 -174 -49 -26
-167 -36 -227 -19 -205 58 -286 376 -152 593 71 113 228 156 362 98z"/>
<path d="M3350 1736 l0 -546 228 0 c270 1 353 13 462 66 189 94 279 266 267
509 -12 232 -128 406 -321 481 -71 28 -72 28 -353 32 l-283 4 0 -546z m464
353 c169 -29 266 -159 266 -353 0 -160 -58 -265 -175 -318 -42 -19 -72 -23
-192 -26 l-143 -4 0 350 0 351 23 4 c45 9 162 7 221 -4z"/>
<path d="M4735 2268 c-24 -68 -127 -362 -216 -618 -61 -173 -121 -346 -135
-383 -13 -38 -24 -70 -24 -73 0 -2 51 -4 114 -4 l114 0 43 128 44 127 200 0
200 0 44 -127 43 -128 114 0 c63 0 114 1 114 3 0 3 -120 343 -260 740 l-123
347 -134 0 c-98 0 -135 -3 -138 -12z m215 -423 c35 -104 65 -196 68 -202 3
-10 -29 -13 -142 -13 -80 0 -146 2 -146 4 0 4 112 333 130 384 7 19 16 30 20
25 4 -4 36 -93 70 -198z"/>
<path d="M6652 1738 l3 -543 102 -3 103 -3 2 363 3 363 149 -220 c82 -121 194
-284 249 -362 l99 -143 94 0 94 0 0 545 0 545 -109 0 -109 0 2 -356 c2 -195 0
-351 -4 -347 -12 13 -329 479 -405 596 l-70 107 -103 0 -102 0 2 -542z"/>
<path d="M4318 843 c7 -3 16 -2 19 1 4 3 -2 6 -13 5 -11 0 -14 -3 -6 -6z"/>
<path d="M3683 740 c0 -30 2 -43 4 -27 2 15 2 39 0 55 -2 15 -4 2 -4 -28z"/>
<path d="M4241 714 c0 -11 3 -14 6 -6 3 7 2 16 -1 19 -3 4 -6 -2 -5 -13z"/>
<path d="M3830 591 c5 -11 15 -23 21 -27 6 -3 3 5 -6 20 -20 30 -30 35 -15 7z"/>
<path d="M4443 603 c9 -2 23 -2 30 0 6 3 -1 5 -18 5 -16 0 -22 -2 -12 -5z"/>
<path d="M4550 591 c0 -6 4 -13 10 -16 6 -3 7 1 4 9 -7 18 -14 21 -14 7z"/>
</g>
</svg>
